{"glyphs":{"0":{"ha":928,"x_min":39,"x_max":899,"o":"m 310 463 l 310 628 q 347 757 310 714 q 442 800 383 800 q 513 776 494 800 q 544 704 532 751 q 565 649 553 667 q 608 631 578 631 q 653 650 635 631 q 671 693 671 669 q 604 813 671 768 q 436 857 538 857 q 232 782 311 857 q 153 560 153 707 l 153 463 l 39 463 l 39 401 l 153 401 l 153 203 q 149 117 153 147 q 133 69 144 86 q 101 47 122 53 q 43 40 81 40 l 43 0 l 419 0 l 419 40 q 362 47 382 40 q 330 69 342 53 q 314 117 318 86 q 310 203 310 147 l 310 401 l 522 401 q 581 395 560 401 q 613 373 601 389 q 628 326 624 357 q 632 240 632 296 l 632 203 q 628 117 632 147 q 613 69 624 86 q 581 47 601 53 q 522 40 560 40 l 522 0 l 899 0 l 899 40 q 841 47 861 40 q 809 69 821 53 q 793 117 797 86 q 789 203 789 147 l 789 463 l 310 463 z "},"1":{"ha":1656,"x_min":39,"x_max":1586,"o":"m 1415 232 q 1389 95 1415 149 q 1311 42 1363 42 q 1247 77 1275 42 q 1219 164 1219 113 l 1219 299 q 1247 386 1219 351 q 1311 421 1275 421 q 1389 368 1363 421 q 1415 232 1415 315 m 310 401 l 621 401 l 621 203 q 616 117 621 149 q 600 69 611 86 q 568 47 589 53 q 511 40 547 40 l 511 0 l 886 0 l 886 40 q 829 47 850 40 q 797 69 808 53 q 781 117 786 86 q 776 203 776 149 l 776 401 l 917 401 l 917 463 l 776 463 l 776 635 q 794 762 776 724 q 864 800 813 800 q 953 800 894 800 q 1041 756 1019 800 q 1063 603 1063 713 q 1063 388 1063 460 l 1063 -11 l 1103 -11 l 1176 67 q 1242 1 1203 25 q 1333 -24 1282 -24 q 1517 50 1449 -24 q 1586 232 1586 124 q 1517 413 1586 340 q 1333 486 1449 486 q 1272 475 1301 486 q 1219 446 1242 464 l 1219 857 q 867 857 900 857 q 621 575 621 857 l 621 463 l 310 463 l 310 599 q 324 715 310 682 q 376 747 338 747 q 408 735 399 747 q 429 694 418 722 q 451 652 439 667 q 489 638 464 638 q 524 653 511 638 q 538 690 538 668 q 493 764 538 729 q 379 799 449 799 q 210 733 267 799 q 153 529 153 668 l 153 463 l 39 463 l 39 401 l 153 401 l 153 203 q 149 117 153 147 q 133 69 144 86 q 101 47 122 53 q 43 40 81 40 l 43 0 l 419 0 l 419 40 q 362 47 382 40 q 330 69 342 53 q 314 117 318 86 q 310 203 310 147 l 310 401 z "},"2":{"ha":1394,"x_min":39,"x_max":1365,"o":"m 621 463 l 310 463 l 310 599 q 324 715 310 682 q 376 747 338 747 q 408 735 399 747 q 429 694 418 722 q 451 652 439 667 q 489 638 464 638 q 524 653 511 638 q 538 690 538 668 q 493 764 538 729 q 379 799 449 799 q 210 733 267 799 q 153 529 153 668 l 153 463 l 39 463 l 39 401 l 153 401 l 153 203 q 149 117 153 147 q 133 69 144 86 q 101 47 122 53 q 43 40 81 40 l 43 0 l 419 0 l 419 40 q 362 47 382 40 q 330 69 342 53 q 314 117 318 86 q 310 203 310 147 l 310 401 l 621 401 l 621 203 q 616 117 621 149 q 600 69 611 86 q 568 47 589 53 q 511 40 547 40 l 511 0 l 886 0 l 886 40 q 829 47 850 40 q 797 69 808 53 q 781 117 786 86 q 776 203 776 149 l 776 401 l 990 401 q 1047 395 1026 401 q 1080 373 1068 389 q 1096 326 1092 357 q 1100 240 1100 294 l 1100 203 q 1095 117 1100 149 q 1079 69 1090 86 q 1047 47 1068 53 q 990 40 1026 40 l 990 0 l 1365 0 l 1365 40 q 1308 47 1329 40 q 1276 69 1288 53 q 1260 117 1265 86 q 1256 203 1256 149 l 1256 463 l 776 463 l 776 628 q 813 757 776 714 q 908 800 850 800 q 981 776 961 800 q 1011 704 1000 751 q 1033 649 1021 667 q 1076 631 1044 631 q 1119 650 1101 631 q 1138 693 1138 669 q 1072 813 1138 768 q 904 857 1006 857 q 700 782 779 857 q 621 560 621 707 l 621 463 z "},"3":{"ha":1699,"x_min":39,"x_max":1693,"o":"m 621 463 l 310 463 l 310 599 q 324 715 310 682 q 376 747 338 747 q 408 735 399 747 q 429 694 418 722 q 451 652 439 667 q 489 638 464 638 q 524 653 511 638 q 538 690 538 668 q 493 764 538 729 q 379 799 449 799 q 210 733 267 799 q 153 529 153 668 l 153 463 l 39 463 l 39 401 l 153 401 l 153 203 q 149 117 153 147 q 133 69 144 86 q 101 47 122 53 q 43 40 81 40 l 43 0 l 419 0 l 419 40 q 362 47 382 40 q 330 69 342 53 q 314 117 318 86 q 310 203 310 147 l 310 401 l 621 401 l 621 203 q 616 117 621 149 q 600 69 611 86 q 568 47 589 53 q 511 40 547 40 l 511 0 l 886 0 l 886 40 q 829 47 850 40 q 797 69 808 53 q 781 117 786 86 q 776 203 776 149 l 776 401 l 917 401 l 917 463 l 776 463 l 776 635 q 794 762 776 724 q 864 800 813 800 q 953 800 894 800 q 1041 756 1019 800 q 1063 603 1063 713 l 1063 203 q 1058 117 1063 147 q 1043 69 1054 86 q 1011 47 1032 53 q 953 40 990 40 l 953 0 l 1329 0 l 1329 40 q 1272 47 1292 40 q 1240 69 1251 53 q 1224 117 1228 86 q 1219 203 1219 147 l 1219 271 q 1257 372 1219 336 q 1342 408 1294 408 q 1410 372 1392 408 q 1428 261 1428 335 l 1428 203 q 1415 73 1428 106 q 1372 40 1401 40 l 1372 0 l 1693 0 l 1693 40 q 1636 47 1657 40 q 1604 69 1615 53 q 1588 117 1593 86 q 1583 203 1583 149 l 1583 279 q 1529 428 1583 369 q 1383 486 1475 486 q 1289 466 1329 486 q 1219 411 1249 446 l 1219 857 q 867 857 900 857 q 621 575 621 857 l 621 463 z "},"4":{"ha":1365,"x_min":39,"x_max":1256,"o":"m 621 463 l 310 463 l 310 599 q 324 715 310 682 q 376 747 338 747 q 408 735 399 747 q 429 694 418 722 q 451 652 439 667 q 489 638 464 638 q 524 653 511 638 q 538 690 538 668 q 493 764 538 729 q 379 799 449 799 q 210 733 267 799 q 153 529 153 668 l 153 463 l 39 463 l 39 401 l 153 401 l 153 203 q 149 117 153 147 q 133 69 144 86 q 101 47 122 53 q 43 40 81 40 l 43 0 l 419 0 l 419 40 q 362 47 382 40 q 330 69 342 53 q 314 117 318 86 q 310 203 310 147 l 310 401 l 621 401 l 621 203 q 616 117 621 149 q 600 69 611 86 q 568 47 589 53 q 511 40 547 40 l 511 0 l 886 0 l 886 40 q 829 47 850 40 q 797 69 808 53 q 781 117 786 86 q 776 203 776 149 l 776 401 l 990 401 q 1047 395 1026 401 q 1080 373 1068 389 q 1096 326 1092 357 q 1100 240 1100 294 l 1100 -97 q 1076 -267 1100 -219 q 1007 -314 1051 -314 q 956 -297 971 -314 q 929 -247 942 -281 q 908 -206 919 -219 q 874 -192 897 -192 q 828 -240 828 -192 q 884 -328 829 -286 q 1029 -371 939 -371 q 1199 -308 1143 -371 q 1256 -108 1256 -244 l 1256 463 l 776 463 l 776 628 q 813 757 776 714 q 908 800 850 800 q 981 776 961 800 q 1011 704 1000 751 q 1033 649 1021 667 q 1076 631 1044 631 q 1119 650 1101 631 q 1138 693 1138 669 q 1072 813 1138 768 q 904 857 1006 857 q 700 782 779 857 q 621 560 621 707 l 621 463 z "},"5":{"ha":1706,"x_min":58,"x_max":1742,"o":"m 1254 353 l 1421 -19 q 1311 -215 1372 -149 q 1164 -282 1250 -282 q 1122 -271 1135 -282 q 1100 -240 1110 -260 q 1088 -218 1094 -225 q 1067 -211 1081 -211 q 1021 -228 1036 -211 q 1006 -275 1006 -246 q 1044 -336 1006 -307 q 1138 -365 1082 -365 q 1267 -334 1211 -365 q 1365 -251 1324 -303 q 1433 -146 1406 -200 q 1494 -10 1460 -92 l 1643 353 q 1682 406 1658 390 q 1742 422 1706 422 l 1742 463 l 1536 463 l 1536 422 q 1586 392 1586 422 q 1576 353 1586 378 l 1501 172 l 1421 353 q 1344 461 1388 429 q 1221 493 1300 493 q 1134 472 1176 493 q 1038 413 1092 450 q 1025 403 1029 406 l 846 275 l 846 857 l 581 822 q 385 735 464 807 q 307 542 307 663 q 311 486 307 515 q 132 410 206 483 q 58 219 58 338 q 78 124 58 168 q 135 46 99 79 q 220 -6 171 13 q 326 -24 269 -24 q 440 1 388 -24 q 533 68 493 25 l 510 108 q 436 61 474 78 q 369 44 399 44 q 265 90 303 44 q 228 219 228 136 q 250 374 228 319 q 324 431 272 429 q 328 411 325 424 q 331 404 331 406 q 372 333 347 360 q 429 307 396 307 q 479 328 461 307 q 497 372 497 350 q 472 433 497 406 q 397 474 447 461 q 375 571 375 521 q 430 712 375 654 q 581 769 485 769 q 638 763 617 769 q 670 741 658 757 q 686 694 682 725 q 690 608 690 663 l 690 203 q 685 117 690 149 q 669 69 681 86 q 638 47 658 53 q 581 40 617 40 l 581 0 l 933 0 l 933 40 q 863 71 881 40 q 846 192 846 101 l 846 221 l 1032 0 l 1228 0 l 1228 40 q 1175 52 1200 40 q 1122 96 1150 64 l 960 292 l 1065 372 q 1124 410 1100 399 q 1178 421 1149 421 q 1222 404 1206 421 q 1254 353 1239 388 z "},"6":{"ha":1346,"x_min":39,"x_max":1329,"o":"m 621 463 l 310 463 l 310 599 q 324 715 310 682 q 376 747 338 747 q 408 735 399 747 q 429 694 418 722 q 451 652 439 667 q 489 638 464 638 q 524 653 511 638 q 538 690 538 668 q 493 764 538 729 q 379 799 449 799 q 210 733 267 799 q 153 529 153 668 l 153 463 l 39 463 l 39 401 l 153 401 l 153 203 q 149 117 153 147 q 133 69 144 86 q 101 47 122 53 q 43 40 81 40 l 43 0 l 419 0 l 419 40 q 362 47 382 40 q 330 69 342 53 q 314 117 318 86 q 310 203 310 147 l 310 401 l 621 401 l 621 203 q 616 117 621 149 q 600 69 611 86 q 568 47 589 53 q 511 40 547 40 l 511 0 l 886 0 l 886 40 q 829 47 850 40 q 797 69 808 53 q 781 117 786 86 q 776 203 776 149 l 776 401 l 917 401 l 917 463 l 776 463 l 776 635 q 794 762 776 724 q 864 800 813 800 q 953 800 894 800 q 1041 756 1019 800 q 1063 603 1063 713 l 1063 203 q 1058 117 1063 147 q 1043 69 1054 86 q 1011 47 1032 53 q 953 40 990 40 l 953 0 l 1329 0 l 1329 40 q 1272 47 1292 40 q 1240 69 1251 53 q 1224 117 1228 86 q 1219 203 1219 147 l 1219 857 q 867 857 900 857 q 621 575 621 857 l 621 463 z "},"7":{"ha":1535,"x_min":39,"x_max":1526,"o":"m 310 401 l 621 401 l 621 203 q 616 117 621 149 q 600 69 611 86 q 568 47 589 53 q 511 40 547 40 l 511 0 l 886 0 l 886 40 q 829 47 850 40 q 797 69 808 53 q 781 117 786 86 q 776 203 776 149 l 776 401 l 990 401 q 1047 395 1026 401 q 1080 373 1068 389 q 1096 326 1092 357 q 1100 240 1100 294 l 1100 203 q 1095 117 1100 149 q 1079 69 1090 86 q 1047 47 1068 53 q 990 40 1026 40 l 990 0 l 1365 0 l 1365 40 q 1308 47 1329 40 q 1276 69 1288 53 q 1260 117 1265 86 q 1256 203 1256 149 l 1256 232 q 1281 345 1256 310 q 1342 381 1307 381 q 1379 369 1368 381 q 1399 333 1390 357 q 1419 300 1408 311 q 1453 289 1429 289 q 1508 315 1489 289 q 1526 372 1526 342 q 1497 452 1526 418 q 1403 486 1467 486 q 1319 457 1361 486 q 1256 386 1278 428 q 1249 424 1254 401 q 1236 463 1243 446 l 776 463 l 776 635 q 793 763 776 726 q 851 800 810 800 q 888 785 876 800 q 911 740 900 771 q 935 694 922 710 q 976 678 949 678 q 1016 694 1001 678 q 1031 735 1031 711 q 982 818 1031 779 q 856 857 933 857 q 677 788 733 857 q 621 575 621 718 l 621 463 l 310 463 l 310 599 q 324 715 310 682 q 376 747 338 747 q 408 735 399 747 q 429 694 418 722 q 451 652 439 667 q 489 638 464 638 q 524 653 511 638 q 538 690 538 668 q 493 764 538 729 q 379 799 449 799 q 210 733 267 799 q 153 529 153 668 l 153 463 l 39 463 l 39 401 l 153 401 l 153 203 q 149 117 153 147 q 133 69 144 86 q 101 47 122 53 q 43 40 81 40 l 43 0 l 419 0 l 419 40 q 362 47 382 40 q 330 69 342 53 q 314 117 318 86 q 310 203 310 147 l 310 401 z "},"8":{"ha":1356,"x_min":39,"x_max":1374,"o":"m 310 401 l 621 401 l 621 203 q 616 117 621 149 q 600 69 611 86 q 568 47 589 53 q 511 40 547 40 l 511 0 l 886 0 l 886 40 q 829 47 850 40 q 797 69 808 53 q 781 117 786 86 q 776 203 776 149 l 776 401 l 1042 401 l 1042 147 q 1085 22 1042 67 q 1204 -24 1128 -24 q 1290 1 1239 -24 q 1374 57 1340 25 l 1354 96 q 1261 56 1300 56 q 1199 157 1199 56 l 1199 401 l 1318 401 l 1318 463 l 1199 463 l 1199 653 l 1150 653 q 1091 520 1143 578 q 953 463 1039 463 l 776 463 l 776 635 q 793 763 776 726 q 851 800 810 800 q 888 785 876 800 q 911 740 900 771 q 935 694 922 710 q 976 678 949 678 q 1016 694 1001 678 q 1031 735 1031 711 q 982 818 1031 779 q 856 857 933 857 q 677 788 733 857 q 621 575 621 718 l 621 463 l 310 463 l 310 599 q 324 715 310 682 q 376 747 338 747 q 408 735 399 747 q 429 694 418 722 q 451 652 439 667 q 489 638 464 638 q 524 653 511 638 q 538 690 538 668 q 493 764 538 729 q 379 799 449 799 q 210 733 267 799 q 153 529 153 668 l 153 463 l 39 463 l 39 401 l 153 401 l 153 203 q 149 117 153 147 q 133 69 144 86 q 101 47 122 53 q 43 40 81 40 l 43 0 l 419 0 l 419 40 q 362 47 382 40 q 330 69 342 53 q 314 117 318 86 q 310 203 310 147 l 310 401 z "},"9":{"ha":1433,"x_min":39,"x_max":1469,"o":"m 1228 172 l 1147 353 q 1136 393 1136 378 q 1193 422 1136 422 l 1193 463 l 776 463 l 776 635 q 793 763 776 726 q 851 800 810 800 q 888 785 876 800 q 911 740 900 771 q 935 694 922 710 q 976 678 949 678 q 1016 694 1001 678 q 1031 735 1031 711 q 982 818 1031 779 q 856 857 933 857 q 677 788 733 857 q 621 575 621 718 l 621 463 l 310 463 l 310 599 q 324 715 310 682 q 376 747 338 747 q 408 735 399 747 q 429 694 418 722 q 451 652 439 667 q 489 638 464 638 q 524 653 511 638 q 538 690 538 668 q 493 764 538 729 q 379 799 449 799 q 210 733 267 799 q 153 529 153 668 l 153 463 l 39 463 l 39 401 l 153 401 l 153 203 q 149 117 153 147 q 133 69 144 86 q 101 47 122 53 q 43 40 81 40 l 43 0 l 419 0 l 419 40 q 362 47 382 40 q 330 69 342 53 q 314 117 318 86 q 310 203 310 147 l 310 401 l 621 401 l 621 203 q 616 117 621 149 q 600 69 611 86 q 568 47 589 53 q 511 40 547 40 l 511 0 l 886 0 l 886 40 q 829 47 850 40 q 797 69 808 53 q 781 117 786 86 q 776 203 776 149 l 776 401 l 899 401 q 953 385 932 401 q 990 332 975 369 l 1149 -19 q 1039 -215 1100 -149 q 892 -282 978 -282 q 849 -271 861 -282 q 826 -240 836 -260 q 814 -218 821 -225 q 793 -211 807 -211 q 748 -228 763 -211 q 733 -275 733 -246 q 772 -336 733 -307 q 865 -365 810 -365 q 994 -334 938 -365 q 1092 -251 1051 -303 q 1161 -144 1133 -200 q 1221 -10 1189 -87 l 1371 353 q 1408 406 1385 390 q 1469 422 1432 422 l 1469 463 l 1263 463 l 1263 422 q 1314 393 1314 422 q 1303 353 1314 378 l 1228 172 z "},"!":{"ha":457,"x_min":125,"x_max":338,"o":"m 125 750 q 131 688 125 714 q 150 624 138 661 q 187 481 172 556 q 206 268 201 407 l 253 268 q 272 481 257 406 q 311 624 288 556 q 331 688 325 663 q 338 750 338 714 q 306 825 338 793 q 229 857 274 857 q 156 825 186 857 q 125 750 125 793 m 310 68 q 286 125 310 101 q 229 149 263 149 q 174 125 196 149 q 151 68 151 101 q 174 13 151 36 q 229 -11 196 -11 q 286 13 263 -11 q 310 68 310 36 z "},"\"":{"ha":594,"x_min":79,"x_max":518,"o":"m 79 763 q 97 690 79 743 q 132 567 118 626 q 153 422 146 508 l 185 422 q 207 569 192 510 q 243 690 222 629 q 263 763 263 744 q 235 829 263 801 q 169 857 207 857 q 106 829 132 857 q 79 763 79 801 m 333 763 q 351 690 333 744 q 386 569 372 628 q 407 422 400 510 l 440 422 q 462 569 447 508 q 499 692 476 629 q 518 763 518 744 q 490 829 518 801 q 424 857 461 857 q 360 829 386 857 q 333 763 333 801 z "},"#":{"ha":553,"x_min":86,"x_max":486,"o":"m 201 553 q 128 490 158 533 q 97 393 97 447 q 124 310 97 353 q 201 240 150 268 l 279 199 q 347 150 326 174 q 368 101 368 126 q 348 55 368 75 q 296 35 328 35 q 232 48 263 35 q 178 83 201 61 q 140 130 154 104 q 126 179 126 156 l 86 179 l 86 -24 l 126 -24 q 144 21 126 21 q 182 7 154 21 q 239 -15 213 -7 q 297 -24 265 -24 q 429 22 372 -24 q 486 144 486 67 q 388 292 486 226 q 459 361 432 317 q 486 457 486 406 q 458 538 486 497 q 379 611 431 578 l 311 649 q 238 698 260 676 q 215 742 215 719 q 235 783 215 764 q 283 801 256 801 q 370 769 329 801 q 411 696 411 738 l 451 696 l 451 857 l 411 857 q 396 832 411 832 q 364 839 388 832 q 261 857 307 857 q 149 817 200 857 q 97 706 97 778 q 124 623 97 665 q 201 553 150 581 m 324 329 l 311 336 q 239 390 263 363 q 215 442 215 417 q 233 491 215 472 q 279 511 251 510 q 347 458 326 486 q 368 401 368 431 q 324 329 368 344 z "},"$":{"ha":826,"x_min":-110,"x_max":799,"o":"m 799 133 q 771 213 799 175 q 692 275 743 251 l 624 307 q 547 347 567 332 q 528 383 528 361 q 547 417 528 404 q 596 431 567 431 q 683 399 642 431 q 724 325 724 367 l 764 325 l 764 486 l 724 486 q 708 461 724 461 q 676 468 700 461 q 574 486 619 486 q 517 478 546 486 q 464 455 489 471 q 424 412 439 439 q 410 347 410 385 q 436 268 410 307 q 514 206 463 229 l 592 171 q 660 131 639 149 q 681 89 681 113 q 661 50 681 65 q 608 35 642 35 q 544 48 575 35 q 490 83 514 61 q 453 130 467 104 q 439 179 439 156 l 399 179 l 399 -24 l 439 -24 q 457 21 439 21 q 494 7 467 21 q 551 -15 525 -7 q 610 -24 578 -24 q 742 16 686 -24 q 799 133 799 56 m 118 575 l 118 -103 q 102 -273 118 -224 q 49 -322 86 -322 q 6 -306 18 -322 q -15 -260 -7 -290 q -31 -219 -22 -232 q -64 -206 -40 -206 q -110 -253 -110 -206 q -68 -333 -110 -296 q 42 -371 -26 -371 q 211 -306 147 -371 q 275 -103 275 -240 l 275 635 q 291 763 275 726 q 350 800 307 800 q 386 785 375 800 q 408 742 397 771 q 434 694 421 710 q 475 678 447 678 q 514 694 500 678 q 528 735 528 711 q 479 818 528 779 q 353 857 431 857 q 174 788 231 857 q 118 575 118 718 z "},"%":{"ha":826,"x_min":8,"x_max":799,"o":"m 118 575 q 97 470 118 499 q 8 442 75 442 l 8 401 l 118 401 l 118 203 q 114 117 118 147 q 99 69 110 86 q 67 47 88 53 q 8 40 46 40 l 8 0 l 275 0 l 275 635 q 291 763 275 726 q 350 800 307 800 q 386 785 375 800 q 408 742 397 771 q 434 694 421 710 q 475 678 447 678 q 514 694 500 678 q 528 735 528 711 q 479 818 528 779 q 353 857 431 857 q 174 788 231 857 q 118 575 118 718 m 799 133 q 771 213 799 175 q 692 275 743 251 l 624 307 q 547 347 567 332 q 528 383 528 361 q 547 417 528 404 q 596 431 567 431 q 683 399 642 431 q 724 325 724 367 l 764 325 l 764 486 l 724 486 q 708 461 724 461 q 676 468 700 461 q 574 486 619 486 q 517 478 546 486 q 464 455 489 471 q 424 412 439 439 q 410 347 410 385 q 436 268 410 307 q 514 206 463 229 l 592 171 q 660 131 639 149 q 681 89 681 113 q 661 50 681 65 q 608 35 642 35 q 544 48 575 35 q 490 83 514 61 q 453 130 467 104 q 439 179 439 156 l 399 179 l 399 -24 l 439 -24 q 457 21 439 21 q 494 7 467 21 q 551 -15 525 -7 q 610 -24 578 -24 q 742 16 686 -24 q 799 133 799 56 z "},"&":{"ha":1664,"x_min":11,"x_max":1599,"o":"m 958 411 l 958 203 q 953 117 958 147 q 935 69 949 86 q 897 47 922 53 q 825 40 872 40 l 825 0 l 1588 0 l 1599 196 l 1558 196 l 1551 168 q 1507 85 1535 107 q 1390 63 1479 63 l 1265 63 q 1194 69 1219 63 q 1156 92 1169 75 q 1137 140 1142 108 q 1132 225 1132 171 l 1132 410 l 1207 410 q 1293 405 1263 410 q 1340 387 1324 400 q 1363 349 1357 374 q 1369 276 1369 324 l 1410 276 l 1410 606 l 1369 606 q 1363 535 1369 560 q 1340 496 1357 510 q 1292 477 1324 482 q 1207 472 1261 472 l 1132 472 l 1132 771 l 1344 771 q 1461 749 1433 771 q 1504 665 1489 726 l 1511 638 l 1553 638 l 1540 833 l 825 833 l 825 793 q 897 787 872 793 q 935 764 922 781 q 953 717 949 747 q 958 631 958 686 l 958 474 l 532 474 l 532 631 q 537 716 532 685 q 556 764 542 747 q 594 787 569 781 q 665 793 619 793 l 665 833 l 24 833 l 11 638 l 53 638 l 60 665 q 103 749 75 726 q 219 771 131 771 l 358 771 l 358 203 q 353 117 358 147 q 335 69 349 86 q 297 47 322 53 q 226 40 272 40 l 226 0 l 665 0 l 665 40 q 594 47 619 40 q 556 69 569 53 q 537 117 542 86 q 532 203 532 149 l 532 411 l 958 411 z "},"'":{"ha":340,"x_min":79,"x_max":263,"o":"m 79 763 q 97 690 79 743 q 132 567 118 626 q 153 422 146 508 l 185 422 q 207 569 192 510 q 243 690 222 629 q 263 763 263 744 q 235 829 263 801 q 169 857 207 857 q 106 829 132 857 q 79 763 79 801 z "},"(":{"ha":497,"x_min":93,"x_max":464,"o":"m 464 -119 q 391 -29 426 -78 q 323 85 356 19 q 269 234 290 151 q 247 410 247 317 q 269 585 247 503 q 323 734 290 668 q 391 848 356 800 q 464 939 426 896 l 426 974 q 297 853 356 915 q 192 722 238 792 q 119 574 146 653 q 93 410 93 496 q 119 246 93 325 q 192 97 146 167 q 297 -34 238 28 q 428 -154 357 -96 l 464 -119 z "},")":{"ha":497,"x_min":33,"x_max":406,"o":"m 406 410 q 379 574 406 496 q 307 722 353 653 q 202 853 261 792 q 72 974 143 915 l 33 939 q 106 849 71 897 q 175 733 142 800 q 230 585 208 667 q 251 410 251 503 q 230 234 251 317 q 175 86 208 151 q 106 -28 142 21 q 33 -119 71 -76 l 71 -154 q 202 -34 143 -96 q 307 97 261 28 q 379 246 353 167 q 406 410 406 325 z "},"*":{"ha":1136,"x_min":-75,"x_max":1068,"o":"m 497 760 l 497 397 l 310 397 l 497 760 m 1011 833 l 467 833 l 114 150 q 42 61 79 82 q -75 40 4 40 l -75 0 l 261 0 l 261 40 q 181 49 206 40 q 157 81 157 58 q 175 135 157 100 l 278 335 l 497 335 l 497 203 q 492 117 497 147 q 474 69 488 86 q 436 47 461 53 q 365 40 411 40 l 365 0 l 1057 0 l 1068 196 l 1028 196 l 1021 168 q 977 85 1006 107 q 860 63 949 63 l 804 63 q 733 69 758 63 q 694 92 708 75 q 676 140 681 108 q 671 225 671 171 l 671 335 l 678 335 q 763 330 732 335 q 810 311 794 325 q 833 272 826 297 q 839 201 839 247 l 879 201 l 879 531 l 839 531 q 833 459 839 485 q 810 420 826 433 q 764 402 794 407 q 678 397 733 397 l 671 397 l 671 771 l 814 771 q 931 749 903 771 q 975 665 958 728 l 982 638 l 1022 638 l 1011 833 z "},"+":{"ha":1403,"x_min":99,"x_max":1338,"o":"m 699 86 q 561 43 640 43 q 438 76 490 43 q 351 165 385 110 q 301 285 317 219 q 285 417 285 351 q 301 548 285 482 q 351 669 317 614 q 438 757 385 724 q 561 790 490 790 q 699 747 643 790 l 699 86 m 710 833 q 561 857 639 857 q 383 823 468 857 q 235 728 299 789 q 135 586 171 667 q 99 417 99 506 q 135 247 99 328 q 235 106 171 167 q 383 10 299 44 q 561 -24 468 -24 q 710 0 639 -24 l 1326 0 l 1338 196 l 1297 196 l 1290 168 q 1247 85 1275 107 q 1129 63 1218 63 l 1004 63 q 933 69 958 63 q 895 92 908 75 q 877 139 882 108 q 872 225 872 169 l 872 410 l 947 410 q 1033 405 1003 410 q 1080 387 1064 400 q 1102 348 1096 374 q 1108 276 1108 322 l 1150 276 l 1150 606 l 1108 606 q 1102 535 1108 560 q 1080 496 1096 510 q 1033 477 1064 482 q 947 472 1001 472 l 872 472 l 872 771 l 1083 771 q 1201 749 1172 771 q 1244 665 1229 726 l 1251 638 l 1292 638 l 1281 833 l 710 833 z "},",":{"ha":435,"x_min":119,"x_max":307,"o":"m 150 -193 q 266 -76 225 -146 q 307 58 307 -7 q 276 138 307 108 q 206 167 246 167 q 144 140 169 167 q 119 78 119 114 q 144 15 119 42 q 206 -11 169 -11 l 213 -11 q 122 -165 203 -82 l 150 -193 z "},"-":{"ha":636,"x_min":115,"x_max":521,"o":"m 521 231 l 521 338 l 115 338 l 115 231 l 521 231 z "},".":{"ha":435,"x_min":119,"x_max":296,"o":"m 296 78 q 269 140 296 114 q 206 167 242 167 q 144 140 169 167 q 119 78 119 114 q 144 15 119 42 q 206 -11 169 -11 q 269 15 242 -11 q 296 78 296 42 z "},"/":{"ha":483,"x_min":19,"x_max":464,"o":"m 464 835 l 396 861 l 19 -1 l 88 -25 l 464 835 z "},":":{"ha":435,"x_min":157,"x_max":315,"o":"m 315 68 q 292 125 315 101 q 235 149 268 149 q 180 125 203 149 q 157 68 157 101 q 180 13 157 36 q 235 -11 203 -11 q 292 13 268 -11 q 315 68 315 36 m 315 331 q 292 388 315 364 q 235 411 268 411 q 180 388 203 411 q 157 331 157 364 q 180 275 157 299 q 235 251 203 251 q 292 275 268 251 q 315 331 315 299 z "},";":{"ha":435,"x_min":157,"x_max":325,"o":"m 185 -178 q 288 -72 251 -135 q 325 49 325 -10 q 297 121 325 94 q 233 147 269 147 q 180 123 203 147 q 157 67 157 99 q 180 10 157 35 q 233 -14 203 -14 l 240 -14 q 160 -153 231 -78 l 185 -178 m 315 331 q 292 388 315 364 q 235 411 268 411 q 180 388 203 411 q 157 331 157 364 q 180 275 157 299 q 235 251 203 251 q 292 275 268 251 q 315 331 315 299 z "},"<":{"ha":694,"x_min":104,"x_max":594,"o":"m 594 101 l 351 372 l 594 643 l 574 674 l 104 372 l 574 69 l 594 101 z "},">":{"ha":694,"x_min":100,"x_max":590,"o":"m 590 372 l 122 674 l 100 643 l 343 372 l 100 101 l 122 69 l 590 372 z "},"?":{"ha":713,"x_min":111,"x_max":649,"o":"m 544 650 q 469 529 544 574 q 275 485 393 485 l 275 243 l 338 243 l 338 318 q 562 410 475 335 q 649 610 649 485 q 628 696 649 651 q 567 776 607 740 q 468 835 526 813 q 338 857 410 857 q 260 847 300 857 q 187 815 221 836 q 132 764 153 794 q 111 696 111 733 q 149 606 111 635 q 231 576 186 576 q 290 595 260 576 q 319 649 319 614 q 301 690 319 672 q 258 707 283 707 q 223 716 235 707 q 211 739 211 725 q 246 780 211 758 q 338 801 281 801 q 486 756 428 801 q 544 650 544 710 m 386 68 q 363 125 386 101 q 307 149 340 149 q 251 125 274 149 q 229 68 229 101 q 251 13 229 36 q 307 -11 274 -11 q 363 13 340 -11 q 386 68 386 36 z "},"@":{"ha":1093,"x_min":-53,"x_max":1144,"o":"m 485 340 l 264 340 l 374 594 l 485 340 m 718 236 l 449 857 l 419 857 l 118 163 q 53 65 86 89 q -53 40 19 40 l -53 0 l 283 0 l 283 40 q 193 53 221 40 q 165 94 165 65 q 179 146 165 114 l 236 278 l 511 278 l 643 -24 l 674 -24 l 975 671 q 1040 769 1007 744 q 1144 793 1074 793 l 1144 833 l 810 833 l 810 793 q 900 781 872 793 q 928 739 928 768 q 914 688 928 719 l 718 236 z "},"A":{"ha":1435,"x_min":-53,"x_max":1488,"o":"m 1051 340 l 831 340 l 940 594 l 1051 340 m 485 340 l 264 340 l 374 594 l 485 340 m 671 -24 l 803 278 l 1078 278 l 1136 146 q 1151 92 1151 113 q 1124 53 1151 65 q 1032 40 1096 40 l 1032 0 l 1488 0 l 1488 40 q 1380 65 1410 40 q 1317 163 1350 89 l 1015 857 l 985 857 l 718 240 l 449 857 l 419 857 l 118 163 q 53 65 86 89 q -53 40 19 40 l -53 0 l 283 0 l 283 40 q 193 53 221 40 q 165 94 165 65 q 179 146 165 114 l 236 278 l 511 278 l 642 -24 l 671 -24 z "},"B":{"ha":1556,"x_min":53,"x_max":1489,"o":"m 1129 63 q 1062 69 1086 63 q 1025 92 1038 76 q 1008 137 1013 108 q 1003 217 1003 165 l 1003 410 l 1125 410 q 1257 360 1211 410 q 1303 236 1303 311 q 1258 113 1303 161 q 1129 63 1214 64 m 1003 771 l 1081 771 q 1194 728 1156 771 q 1233 621 1233 685 q 1194 514 1233 556 q 1081 472 1156 472 l 1003 472 l 1003 771 m 1129 63 l 1125 63 l 1129 63 m 696 0 l 1207 0 q 1411 67 1333 0 q 1489 233 1489 135 q 1442 369 1489 310 q 1317 453 1396 428 q 1392 526 1365 481 q 1419 625 1419 571 q 1350 774 1419 714 q 1168 833 1281 833 l 858 833 l 599 232 l 331 833 l 53 833 l 53 793 q 124 787 99 793 q 162 764 149 781 q 180 717 175 747 q 185 631 185 686 l 185 203 q 180 117 185 147 q 162 69 175 86 q 124 47 149 53 q 53 40 99 40 l 53 0 l 381 0 l 381 40 q 310 47 335 40 q 271 69 285 53 q 252 117 257 86 q 247 203 247 149 l 247 603 l 526 -24 l 557 -24 l 829 604 l 829 203 q 824 117 829 149 q 806 69 819 86 q 767 47 792 53 q 696 40 742 40 l 696 0 z "},"C":{"ha":1354,"x_min":64,"x_max":1253,"o":"m 651 74 q 526 43 597 43 q 397 76 453 43 q 306 165 342 110 q 254 285 271 219 q 238 417 238 351 q 254 548 238 482 q 306 669 271 614 q 397 757 342 724 q 526 790 453 790 q 651 760 597 790 q 534 608 576 697 q 492 417 492 518 q 534 224 492 314 q 651 74 576 135 m 735 685 q 797 560 776 632 q 817 417 817 489 q 797 273 817 344 q 735 149 776 201 q 685 271 701 200 q 668 417 668 342 q 685 563 668 493 q 735 685 701 633 m 813 761 q 924 790 861 790 q 1106 718 1029 790 q 1213 513 1183 646 l 1253 513 l 1253 818 l 1213 818 q 1178 739 1200 758 q 1057 826 1124 796 q 918 857 990 857 q 731 811 819 857 q 526 857 635 857 q 349 823 433 857 q 200 728 264 789 q 100 586 136 667 q 64 417 64 506 q 100 247 64 328 q 200 106 136 167 q 349 10 264 44 q 526 -24 433 -24 q 731 22 635 -24 q 918 -24 819 -24 q 1056 7 989 -24 q 1178 94 1122 38 q 1198 65 1189 86 q 1213 15 1207 43 l 1253 15 l 1253 321 l 1213 321 q 1106 116 1183 189 q 924 43 1028 43 q 813 72 861 43 q 943 224 896 133 q 990 417 990 314 q 943 610 990 519 q 813 761 896 700 z "},"D":{"ha":1681,"x_min":53,"x_max":1617,"o":"m 1003 771 q 1150 771 1136 771 q 1283 740 1229 771 q 1367 656 1338 708 q 1409 544 1397 604 q 1421 417 1421 483 q 1409 290 1421 351 q 1367 177 1397 229 q 1283 94 1338 125 q 1150 63 1229 63 l 1136 63 q 1065 69 1090 63 q 1026 91 1039 75 q 1008 137 1013 107 q 1003 219 1003 167 l 1003 771 m 696 0 l 1154 0 q 1360 32 1272 0 q 1504 121 1447 64 q 1589 253 1561 178 q 1617 417 1617 329 q 1589 580 1617 504 q 1504 713 1561 656 q 1360 801 1447 769 q 1154 833 1272 833 l 858 833 l 599 232 l 331 833 l 53 833 l 53 793 q 124 787 99 793 q 162 764 149 781 q 180 717 175 747 q 185 631 185 686 l 185 203 q 180 117 185 147 q 162 69 175 86 q 124 47 149 53 q 53 40 99 40 l 53 0 l 381 0 l 381 40 q 310 47 335 40 q 271 69 285 53 q 252 117 257 86 q 247 203 247 149 l 247 603 l 526 -24 l 557 -24 l 829 604 l 829 203 q 824 117 829 149 q 806 69 819 86 q 767 47 792 53 q 696 40 742 40 l 696 0 z "},"E":{"ha":1533,"x_min":53,"x_max":1469,"o":"m 1411 833 l 858 833 l 599 232 l 331 833 l 53 833 l 53 793 q 124 787 99 793 q 162 764 149 781 q 180 717 175 747 q 185 631 185 686 l 185 203 q 180 117 185 147 q 162 69 175 86 q 124 47 149 53 q 53 40 99 40 l 53 0 l 381 0 l 381 40 q 310 47 335 40 q 271 69 285 53 q 252 117 257 86 q 247 203 247 149 l 247 603 l 526 -24 l 557 -24 l 829 604 l 829 203 q 824 117 829 149 q 806 69 819 86 q 767 47 792 53 q 696 40 742 40 l 696 0 l 1457 0 l 1469 196 l 1428 196 l 1421 168 q 1378 85 1406 107 q 1261 63 1350 63 l 1136 63 q 1065 69 1090 63 q 1026 92 1039 75 q 1008 139 1013 108 q 1003 225 1003 169 l 1003 410 l 1078 410 q 1164 405 1133 410 q 1211 387 1194 400 q 1234 349 1228 374 q 1240 276 1240 324 l 1281 276 l 1281 606 l 1240 606 q 1234 535 1240 560 q 1211 496 1228 510 q 1163 477 1194 482 q 1078 472 1132 472 l 1003 472 l 1003 771 l 1214 771 q 1331 749 1303 771 q 1375 665 1360 726 l 1382 638 l 1422 638 l 1411 833 z "},"F":{"ha":1581,"x_min":53,"x_max":1558,"o":"m 1546 833 l 53 833 l 53 793 q 124 787 99 793 q 162 764 149 781 q 180 717 175 747 q 185 631 185 686 l 185 203 q 180 117 185 147 q 162 69 175 86 q 124 47 149 53 q 53 40 99 40 l 53 0 l 492 0 l 492 40 q 421 47 446 40 q 382 69 396 53 q 363 117 368 86 q 358 203 358 149 l 358 410 l 435 410 q 521 405 490 410 q 567 387 551 400 q 590 348 583 374 q 596 276 596 322 l 636 276 l 636 606 l 596 606 q 590 535 596 560 q 567 496 583 510 q 520 477 551 482 q 435 472 489 472 l 358 472 l 358 771 l 808 771 q 879 765 854 771 q 918 742 904 758 q 937 694 932 725 q 942 608 942 663 l 942 203 q 937 117 942 149 q 918 69 932 86 q 879 47 904 53 q 808 40 854 40 l 808 0 l 1247 0 l 1247 40 q 1176 47 1201 40 q 1138 69 1151 53 q 1120 117 1125 86 q 1115 203 1115 147 l 1115 410 l 1190 410 q 1276 405 1246 410 q 1323 387 1307 400 q 1345 348 1339 374 q 1351 276 1351 322 l 1393 276 l 1393 606 l 1351 606 q 1345 535 1351 560 q 1323 496 1339 510 q 1276 477 1307 482 q 1190 472 1244 472 l 1115 472 l 1115 771 l 1350 771 q 1467 749 1439 771 q 1511 665 1494 726 l 1518 638 l 1558 638 l 1546 833 z "},"G":{"ha":1400,"x_min":64,"x_max":1413,"o":"m 651 74 q 526 43 597 43 q 397 76 453 43 q 306 165 342 110 q 254 285 271 219 q 238 417 238 351 q 254 548 238 482 q 306 669 271 614 q 397 757 342 724 q 526 790 453 790 q 651 760 597 790 q 534 608 576 697 q 492 417 492 518 q 534 224 492 314 q 651 74 576 135 m 735 685 q 797 560 776 632 q 817 417 817 489 q 797 273 817 344 q 735 149 776 201 q 685 271 701 200 q 668 417 668 342 q 685 563 668 493 q 735 685 701 633 m 813 761 q 924 790 861 790 q 1106 718 1029 790 q 1213 513 1183 646 l 1253 513 l 1253 818 l 1213 818 q 1178 739 1200 758 q 1057 826 1124 796 q 918 857 990 857 q 731 811 819 857 q 526 857 635 857 q 349 823 433 857 q 200 728 264 789 q 100 586 136 667 q 64 417 64 506 q 100 247 64 328 q 200 106 136 167 q 349 10 264 44 q 526 -24 433 -24 q 731 22 635 -24 q 918 -24 819 -24 q 1000 -15 964 -24 q 1083 11 1036 -6 q 1181 39 1139 29 q 1279 49 1222 49 l 1279 143 q 1284 229 1279 199 q 1302 276 1289 260 q 1341 298 1315 292 q 1413 304 1367 304 l 1413 344 l 1047 344 l 1047 304 q 1113 283 1093 304 q 1132 215 1132 261 q 1073 85 1132 126 q 924 43 1014 43 q 813 72 861 43 q 943 224 896 133 q 990 417 990 314 q 943 610 990 519 q 813 761 896 700 z "},"H":{"ha":1490,"x_min":53,"x_max":1425,"o":"m 785 411 l 785 203 q 780 117 785 147 q 762 69 775 86 q 724 47 749 53 q 651 40 699 40 l 651 0 l 1414 0 l 1425 196 l 1385 196 l 1378 168 q 1333 85 1361 107 q 1217 63 1306 63 l 1092 63 q 1021 69 1046 63 q 982 92 996 75 q 963 140 968 108 q 958 225 958 171 l 958 410 l 1033 410 q 1119 405 1089 410 q 1167 387 1150 400 q 1190 349 1183 374 q 1196 276 1196 324 l 1236 276 l 1236 606 l 1196 606 q 1190 535 1196 560 q 1167 496 1183 510 q 1119 477 1150 482 q 1033 472 1088 472 l 958 472 l 958 771 l 1171 771 q 1288 749 1260 771 q 1331 665 1315 726 l 1338 638 l 1379 638 l 1367 833 l 651 833 l 651 793 q 724 787 699 793 q 762 764 749 781 q 780 717 775 747 q 785 631 785 686 l 785 474 l 358 474 l 358 631 q 363 716 358 685 q 382 764 368 747 q 421 787 396 781 q 492 793 446 793 l 492 833 l 53 833 l 53 793 q 124 787 99 793 q 162 764 149 781 q 180 717 175 747 q 185 631 185 686 l 185 203 q 180 117 185 147 q 162 69 175 86 q 124 47 149 53 q 53 40 99 40 l 53 0 l 492 0 l 492 40 q 421 47 446 40 q 382 69 396 53 q 363 117 368 86 q 358 203 358 149 l 358 411 l 785 411 z "},"I":{"ha":1311,"x_min":53,"x_max":1260,"o":"m 1260 833 l 53 833 l 53 793 q 124 787 99 793 q 162 764 149 781 q 180 717 175 747 q 185 631 185 686 l 185 203 q 180 117 185 147 q 162 69 175 86 q 124 47 149 53 q 53 40 99 40 l 53 0 l 492 0 l 492 40 q 421 47 446 40 q 382 69 396 53 q 363 117 368 86 q 358 203 358 149 l 358 410 l 435 410 q 521 405 490 410 q 567 387 551 400 q 590 348 583 374 q 596 276 596 322 l 636 276 l 636 606 l 596 606 q 590 535 596 560 q 567 496 583 510 q 520 477 551 482 q 435 472 489 472 l 358 472 l 358 771 l 819 771 q 890 765 865 771 q 929 742 915 758 q 948 694 943 725 q 953 608 953 663 l 953 203 q 948 117 953 149 q 929 69 943 86 q 890 47 915 53 q 819 40 865 40 l 819 0 l 1260 0 l 1260 40 q 1188 47 1214 40 q 1149 69 1163 53 q 1131 117 1136 86 q 1126 203 1126 147 l 1126 631 q 1131 717 1126 686 q 1149 764 1136 747 q 1188 787 1163 781 q 1260 793 1214 793 l 1260 833 z "},"J":{"ha":1497,"x_min":43,"x_max":1429,"o":"m 1069 63 q 1002 69 1026 63 q 965 92 978 76 q 948 137 953 108 q 943 217 943 165 l 943 410 l 1067 410 q 1198 360 1153 410 q 1243 236 1243 311 q 1199 113 1243 161 q 1069 63 1154 64 m 943 771 l 1021 771 q 1135 728 1096 771 q 1174 621 1174 685 q 1135 514 1174 556 q 1021 472 1096 472 l 943 472 l 943 771 m 1069 63 l 1067 63 l 1069 63 m 769 0 l 1149 0 q 1352 67 1275 0 q 1429 233 1429 133 q 1383 369 1429 310 q 1257 453 1338 428 q 1333 526 1306 481 q 1360 625 1360 571 q 1290 774 1360 714 q 1108 833 1221 833 l 636 833 l 636 793 q 708 787 683 793 q 747 764 733 781 q 765 717 760 747 q 769 631 769 686 l 769 325 q 714 128 769 194 q 565 63 658 63 q 410 129 471 63 q 350 325 350 196 l 350 631 q 355 717 350 686 q 373 764 360 747 q 412 787 386 781 q 483 793 438 793 l 483 833 l 43 833 l 43 793 q 114 787 89 793 q 153 764 139 781 q 172 716 167 747 q 176 631 176 685 l 176 310 q 271 64 176 151 q 510 -24 365 -24 q 657 5 589 -24 q 769 88 725 33 l 769 0 z "},"K":{"ha":1600,"x_min":53,"x_max":1607,"o":"m 864 -24 l 864 371 l 922 419 l 1197 122 q 1224 75 1224 94 q 1144 40 1224 40 l 1144 0 l 1607 0 l 1607 40 q 1517 65 1574 40 q 1428 122 1461 89 l 1042 521 l 1240 679 q 1249 685 1246 683 q 1372 770 1325 747 q 1494 793 1418 793 l 1494 833 l 1160 833 l 1160 793 q 1204 785 1190 793 q 1218 765 1218 778 q 1198 723 1218 747 q 1154 679 1178 699 l 864 444 l 864 631 q 869 717 864 686 q 887 764 874 747 q 926 787 900 781 q 997 793 951 793 l 997 833 l 581 833 l 581 793 q 651 787 626 793 q 690 764 676 781 q 708 717 703 747 q 713 631 713 686 l 713 376 l 331 833 l 53 833 l 53 793 q 124 787 99 793 q 162 764 149 781 q 180 717 175 747 q 185 631 185 686 l 185 203 q 180 117 185 147 q 162 69 175 86 q 124 47 149 53 q 53 40 99 40 l 53 0 l 381 0 l 381 40 q 310 47 335 40 q 271 69 285 53 q 252 117 257 86 q 247 203 247 149 l 247 663 l 822 -24 l 864 -24 z "},"L":{"ha":1647,"x_min":53,"x_max":1628,"o":"m 1260 833 l 53 833 l 53 793 q 124 787 99 793 q 162 764 149 781 q 180 717 175 747 q 185 631 185 686 l 185 203 q 180 117 185 147 q 162 69 175 86 q 124 47 149 53 q 53 40 99 40 l 53 0 l 492 0 l 492 40 q 421 47 446 40 q 382 69 396 53 q 363 117 368 86 q 358 203 358 149 l 358 410 l 435 410 q 521 405 490 410 q 567 387 551 400 q 590 348 583 374 q 596 276 596 322 l 636 276 l 636 606 l 596 606 q 590 535 596 560 q 567 496 583 510 q 520 477 551 482 q 435 472 489 472 l 358 472 l 358 771 l 819 771 q 890 765 865 771 q 929 742 915 758 q 948 694 943 725 q 953 608 953 663 l 953 203 q 948 117 953 149 q 929 69 943 86 q 890 47 915 53 q 819 40 865 40 l 819 0 l 1615 0 l 1628 196 l 1588 196 l 1581 168 q 1536 85 1564 107 q 1419 63 1508 63 l 1260 63 q 1188 69 1214 63 q 1149 92 1163 75 q 1131 139 1136 108 q 1126 225 1126 169 l 1126 631 q 1131 717 1126 686 q 1149 764 1136 747 q 1188 787 1163 781 q 1260 793 1214 793 l 1260 833 z "},"M":{"ha":1551,"x_min":53,"x_max":1604,"o":"m 1168 340 l 947 340 l 1057 594 l 1168 340 m 53 0 l 967 0 l 967 40 q 876 53 904 40 q 849 94 849 65 q 863 146 849 114 l 919 278 l 1194 278 l 1253 146 q 1268 92 1268 113 q 1240 53 1268 65 q 1149 40 1213 40 l 1149 0 l 1604 0 l 1604 40 q 1497 65 1526 40 q 1435 163 1467 89 l 1132 857 l 1101 857 l 810 185 q 745 87 779 111 q 640 63 711 63 l 593 63 l 492 63 q 421 69 446 63 q 382 92 396 75 q 363 140 368 108 q 358 225 358 171 l 358 631 q 363 716 358 685 q 382 764 368 747 q 421 787 396 781 q 492 793 446 793 l 492 833 l 53 833 l 53 793 q 124 787 99 793 q 162 764 149 781 q 180 717 175 747 q 185 631 185 686 l 185 203 q 180 117 185 147 q 162 69 175 86 q 124 47 149 53 q 53 40 99 40 l 53 0 z "},"N":{"ha":1817,"x_min":53,"x_max":1804,"o":"m 1793 833 l 661 833 l 661 793 q 732 787 707 793 q 771 764 757 781 q 790 716 785 747 q 794 631 794 685 l 794 281 l 331 833 l 53 833 l 53 793 q 124 787 99 793 q 162 764 149 781 q 180 717 175 747 q 185 631 185 686 l 185 203 q 180 117 185 147 q 162 69 175 86 q 124 47 149 53 q 53 40 99 40 l 53 0 l 381 0 l 381 40 q 310 47 335 40 q 271 69 285 53 q 252 117 257 86 q 247 203 247 149 l 247 663 l 822 -24 l 857 -24 l 857 608 q 862 694 857 664 q 880 742 867 725 q 919 765 893 758 q 990 771 944 771 l 1283 771 l 1283 203 q 1278 117 1283 147 q 1260 69 1274 86 q 1222 47 1247 53 q 1150 40 1197 40 l 1150 0 l 1590 0 l 1590 40 q 1519 47 1544 40 q 1481 69 1494 53 q 1462 117 1467 86 q 1457 203 1457 149 l 1457 771 l 1596 771 q 1713 749 1685 771 q 1757 665 1742 726 l 1764 638 l 1804 638 l 1793 833 z "},"O":{"ha":1482,"x_min":64,"x_max":1418,"o":"m 740 678 q 797 556 778 625 q 817 417 817 486 q 798 277 817 346 q 740 156 779 208 q 684 278 703 208 q 665 417 665 347 q 684 556 665 486 q 740 678 703 625 m 740 807 q 526 857 636 857 q 349 823 433 857 q 200 728 264 789 q 100 586 136 667 q 64 417 64 506 q 100 247 64 328 q 200 106 136 167 q 349 10 264 44 q 526 -24 433 -24 q 740 26 638 -24 q 956 -24 847 -24 q 1133 10 1049 -24 q 1282 106 1218 44 q 1382 247 1346 167 q 1418 417 1418 328 q 1383 586 1418 506 q 1283 728 1347 667 q 1133 823 1218 789 q 956 857 1049 857 q 740 807 844 857 m 660 79 q 526 43 603 43 q 397 76 453 43 q 306 165 342 110 q 254 285 271 219 q 238 417 238 351 q 254 548 238 482 q 306 669 271 614 q 397 757 342 724 q 526 790 453 790 q 660 754 603 790 q 537 606 582 694 q 492 417 492 517 q 537 230 492 318 q 660 79 582 142 m 822 754 q 956 790 878 790 q 1085 757 1029 790 q 1176 669 1140 724 q 1228 548 1211 614 q 1244 417 1244 482 q 1228 285 1244 351 q 1176 165 1211 219 q 1085 76 1140 110 q 956 43 1029 43 q 822 79 878 43 q 945 228 900 139 q 990 417 990 317 q 945 604 990 517 q 822 754 900 692 z "},"P":{"ha":1475,"x_min":53,"x_max":1442,"o":"m 1079 428 l 1003 428 l 1003 771 l 1079 771 q 1210 722 1165 771 q 1256 599 1256 674 q 1210 476 1256 524 q 1079 428 1165 428 m 696 0 l 1136 0 l 1136 40 q 1065 47 1090 40 q 1026 69 1039 53 q 1008 117 1013 86 q 1003 203 1003 147 l 1003 365 l 1161 365 q 1365 432 1288 365 q 1442 599 1442 499 q 1365 766 1442 699 q 1161 833 1288 833 l 858 833 l 599 232 l 331 833 l 53 833 l 53 793 q 124 787 99 793 q 162 764 149 781 q 180 717 175 747 q 185 631 185 686 l 185 203 q 180 117 185 147 q 162 69 175 86 q 124 47 149 53 q 53 40 99 40 l 53 0 l 381 0 l 381 40 q 310 47 335 40 q 271 69 285 53 q 252 117 257 86 q 247 203 247 149 l 247 603 l 526 -24 l 557 -24 l 829 604 l 829 203 q 824 117 829 149 q 806 69 819 86 q 767 47 792 53 q 696 40 742 40 l 696 0 z "},"Q":{"ha":1064,"x_min":11,"x_max":999,"o":"m 942 833 l 24 833 l 11 638 l 53 638 l 60 665 q 103 749 75 726 q 219 771 131 771 l 358 771 l 358 203 q 353 117 358 147 q 335 69 349 86 q 297 47 322 53 q 226 40 272 40 l 226 0 l 988 0 l 999 196 l 958 196 l 951 168 q 908 85 936 107 q 790 63 879 63 l 665 63 q 594 69 619 63 q 556 92 569 75 q 537 140 542 108 q 532 225 532 171 l 532 410 l 608 410 q 694 405 664 410 q 741 387 725 400 q 763 348 757 374 q 769 276 769 322 l 810 276 l 810 606 l 769 606 q 763 535 769 560 q 741 496 757 510 q 694 477 725 482 q 608 472 663 472 l 532 472 l 532 771 l 744 771 q 861 749 833 771 q 906 665 889 728 l 913 638 l 953 638 l 942 833 z "},"R":{"ha":1115,"x_min":11,"x_max":1121,"o":"m 608 428 l 532 428 l 532 771 l 608 771 q 740 722 694 771 q 786 599 786 674 q 740 476 786 524 q 608 428 694 428 m 226 0 l 665 0 l 665 40 q 594 47 619 40 q 556 69 569 53 q 537 117 542 86 q 532 203 532 149 l 532 365 l 572 365 l 819 0 l 1121 0 l 1121 40 q 1060 54 1088 44 q 1005 83 1033 64 q 942 134 976 101 q 861 218 907 167 l 726 365 q 906 441 839 375 q 972 599 972 507 q 895 766 972 699 q 692 833 818 833 l 24 833 l 11 638 l 53 638 l 60 665 q 103 749 75 726 q 219 771 131 771 l 358 771 l 358 203 q 353 117 358 147 q 335 69 349 86 q 297 47 322 53 q 226 40 272 40 l 226 0 z "},"S":{"ha":1622,"x_min":43,"x_max":1558,"o":"m 943 771 q 1090 771 1078 771 q 1224 740 1171 771 q 1308 656 1278 708 q 1349 543 1338 604 q 1361 417 1361 482 q 1349 290 1361 351 q 1308 177 1338 229 q 1224 94 1278 125 q 1090 63 1171 63 l 1076 63 q 1006 69 1031 63 q 967 91 981 75 q 948 137 953 107 q 943 219 943 167 l 943 771 m 769 0 l 1094 0 q 1301 32 1213 0 q 1446 121 1389 64 q 1531 253 1503 178 q 1558 417 1558 329 q 1531 580 1558 504 q 1446 713 1503 656 q 1301 801 1389 769 q 1094 833 1213 833 l 636 833 l 636 793 q 708 787 683 793 q 747 764 733 781 q 765 717 760 747 q 769 631 769 686 l 769 325 q 714 128 769 194 q 565 63 658 63 q 410 129 471 63 q 350 325 350 196 l 350 631 q 355 717 350 686 q 373 764 360 747 q 412 787 386 781 q 483 793 438 793 l 483 833 l 43 833 l 43 793 q 114 787 89 793 q 153 764 139 781 q 172 716 167 747 q 176 631 176 685 l 176 310 q 271 64 176 151 q 510 -24 365 -24 q 657 5 589 -24 q 769 88 725 33 l 769 0 z "},"T":{"ha":1643,"x_min":11,"x_max":1632,"o":"m 1621 833 l 24 833 l 11 638 l 53 638 l 60 665 q 103 749 75 726 q 219 771 131 771 l 358 771 l 358 203 q 353 117 358 147 q 335 69 349 86 q 297 47 322 53 q 226 40 272 40 l 226 0 l 665 0 l 665 40 q 594 47 619 40 q 556 69 569 53 q 537 117 542 86 q 532 203 532 149 l 532 771 l 1111 771 l 1111 203 q 1106 117 1111 147 q 1088 69 1101 86 q 1050 47 1075 53 q 978 40 1025 40 l 978 0 l 1418 0 l 1418 40 q 1347 47 1372 40 q 1308 69 1322 53 q 1290 117 1294 86 q 1285 203 1285 149 l 1285 771 l 1424 771 q 1541 749 1513 771 q 1585 665 1569 726 l 1592 638 l 1632 638 l 1621 833 z "},"U":{"ha":1415,"x_min":43,"x_max":1383,"o":"m 1019 428 l 943 428 l 943 771 l 1019 771 q 1151 722 1106 771 q 1197 599 1197 674 q 1151 476 1197 524 q 1019 428 1106 428 m 769 0 l 1076 0 l 1076 40 q 1006 47 1031 40 q 967 69 981 53 q 948 117 953 86 q 943 203 943 149 l 943 365 l 1101 365 q 1306 432 1229 365 q 1383 599 1383 499 q 1306 766 1383 699 q 1101 833 1229 833 l 636 833 l 636 793 q 708 787 683 793 q 747 764 733 781 q 765 717 760 747 q 769 631 769 686 l 769 325 q 714 128 769 194 q 565 63 658 63 q 410 129 471 63 q 350 325 350 196 l 350 631 q 355 717 350 686 q 373 764 360 747 q 412 787 386 781 q 483 793 438 793 l 483 833 l 43 833 l 43 793 q 114 787 89 793 q 153 764 139 781 q 172 716 167 747 q 176 631 176 685 l 176 310 q 271 64 176 151 q 510 -24 365 -24 q 657 5 589 -24 q 769 88 725 33 l 769 0 z "},"V":{"ha":1211,"x_min":-53,"x_max":1264,"o":"m 1264 0 l 1264 40 q 1156 65 1186 40 q 1094 163 1126 89 l 792 857 l 761 857 l 493 236 l 299 688 q 283 742 283 721 q 311 781 283 768 q 403 793 339 793 l 403 833 l -53 833 l -53 793 q 56 769 26 793 q 117 671 85 744 l 419 -24 l 449 -24 l 579 278 l 854 278 l 913 146 q 928 92 928 113 q 900 53 928 65 q 808 40 872 40 l 808 0 l 1264 0 m 828 340 l 607 340 l 717 594 l 828 340 z "},"W":{"ha":1879,"x_min":11,"x_max":1949,"o":"m 1201 833 l 24 833 l 11 638 l 53 638 l 60 665 q 103 749 75 726 q 219 771 131 771 l 358 771 l 358 203 q 353 117 358 147 q 335 69 349 86 q 297 47 322 53 q 226 40 272 40 l 226 0 l 665 0 l 665 40 q 594 47 619 40 q 556 69 569 53 q 537 117 542 86 q 532 203 532 149 l 532 771 l 738 771 l 769 771 q 841 765 814 771 q 885 747 868 760 q 912 712 901 733 q 935 650 922 690 l 1153 -24 l 1183 -24 l 1354 514 l 1529 -24 l 1560 -24 l 1783 671 q 1807 732 1796 710 q 1835 768 1818 754 q 1878 788 1851 782 q 1949 793 1906 793 l 1949 833 l 1625 833 l 1625 793 q 1707 779 1682 793 q 1732 735 1732 765 q 1722 688 1732 715 l 1594 296 l 1421 833 l 1389 833 l 1219 297 l 1093 688 q 1083 739 1083 719 q 1110 781 1083 768 q 1201 793 1136 793 l 1201 833 z "},"X":{"ha":1464,"x_min":43,"x_max":1444,"o":"m 1076 833 l 636 833 l 636 793 q 708 787 683 793 q 747 764 733 781 q 765 717 760 747 q 769 631 769 686 l 769 325 q 714 128 769 194 q 565 63 658 63 q 410 129 471 63 q 350 325 350 196 l 350 631 q 355 717 350 686 q 373 764 360 747 q 412 787 386 781 q 483 793 438 793 l 483 833 l 43 833 l 43 793 q 114 787 89 793 q 153 764 139 781 q 172 716 167 747 q 176 631 176 685 l 176 310 q 271 64 176 151 q 510 -24 365 -24 q 657 5 589 -24 q 769 88 725 33 l 769 0 l 1433 0 l 1444 196 l 1404 196 l 1397 168 q 1353 85 1382 107 q 1236 63 1325 63 l 1076 63 q 1006 69 1031 63 q 967 92 981 75 q 948 140 953 108 q 943 225 943 171 l 943 631 q 948 716 943 685 q 967 764 953 747 q 1006 787 981 781 q 1076 793 1031 793 l 1076 833 z "},"Y":{"ha":1667,"x_min":11,"x_max":1711,"o":"m 1213 833 l 24 833 l 11 638 l 53 638 l 60 665 q 103 749 75 726 q 219 771 131 771 l 358 771 l 358 203 q 353 117 358 147 q 335 69 349 86 q 297 47 322 53 q 226 40 272 40 l 226 0 l 665 0 l 665 40 q 594 47 619 40 q 556 69 569 53 q 537 117 542 86 q 532 203 532 149 l 532 771 l 678 771 l 757 771 q 869 747 831 771 q 957 650 908 724 l 1143 367 l 1143 203 q 1138 117 1143 147 q 1120 69 1133 86 q 1082 47 1107 53 q 1011 40 1057 40 l 1011 0 l 1444 0 l 1444 40 q 1374 47 1399 40 q 1335 69 1349 53 q 1316 117 1321 86 q 1311 203 1311 149 l 1311 371 l 1511 671 q 1553 732 1538 711 q 1590 767 1569 753 q 1638 787 1610 781 q 1711 793 1667 793 l 1711 833 l 1375 833 l 1375 793 q 1476 751 1476 793 q 1449 688 1476 729 l 1294 453 l 1138 688 q 1113 747 1113 724 q 1213 793 1113 793 l 1213 833 z "},"Z":{"ha":1526,"x_min":43,"x_max":1532,"o":"m 1019 428 l 943 428 l 943 771 l 1019 771 q 1151 722 1106 771 q 1197 599 1197 674 q 1151 476 1197 524 q 1019 428 1106 428 m 769 0 l 1076 0 l 1076 40 q 1006 47 1031 40 q 967 69 981 53 q 948 117 953 86 q 943 203 943 149 l 943 365 l 983 365 l 1231 0 l 1532 0 l 1532 40 q 1472 54 1499 44 q 1416 83 1444 64 q 1353 134 1388 101 q 1272 218 1318 167 l 1136 365 q 1316 441 1249 375 q 1383 599 1383 507 q 1306 766 1383 699 q 1101 833 1229 833 l 636 833 l 636 793 q 708 787 683 793 q 747 764 733 781 q 765 717 760 747 q 769 631 769 686 l 769 325 q 714 128 769 194 q 565 63 658 63 q 410 129 471 63 q 350 325 350 196 l 350 631 q 355 717 350 686 q 373 764 360 747 q 412 787 386 781 q 483 793 438 793 l 483 833 l 43 833 l 43 793 q 114 787 89 793 q 153 764 139 781 q 172 716 167 747 q 176 631 176 685 l 176 310 q 271 64 176 151 q 510 -24 365 -24 q 657 5 589 -24 q 769 88 725 33 l 769 0 z "},"[":{"ha":521,"x_min":163,"x_max":467,"o":"m 467 -122 l 467 -67 l 322 -67 l 322 886 l 467 886 l 467 942 l 163 942 l 163 -122 l 467 -122 z "},"\\":{"ha":483,"x_min":-47,"x_max":532,"o":"m 532 10 l 18 861 l -47 825 l 465 -25 l 532 10 z "},"]":{"ha":521,"x_min":54,"x_max":358,"o":"m 358 -122 l 358 942 l 54 942 l 54 886 l 199 886 l 199 -67 l 54 -67 l 54 -122 l 358 -122 z "},"^":{"ha":875,"x_min":54,"x_max":835,"o":"m 518 318 q 618 419 542 419 q 682 392 660 419 q 704 318 704 365 l 518 318 m 363 122 q 297 76 329 93 q 247 60 265 60 q 208 73 224 60 q 192 115 192 86 q 233 190 192 164 q 363 240 274 217 l 363 122 m 388 88 q 485 6 424 36 q 622 -24 546 -24 q 739 2 681 -24 q 835 68 797 28 l 810 108 q 736 65 779 81 q 646 50 693 50 q 549 97 590 50 q 508 229 508 143 q 510 243 508 233 q 510 257 510 251 l 811 257 q 818 300 818 278 q 760 428 818 371 q 611 486 703 486 q 456 442 526 486 q 289 486 406 486 q 148 456 208 486 q 88 375 88 425 q 103 331 88 347 q 142 315 118 315 q 181 332 165 315 q 197 375 197 349 q 221 415 197 400 q 272 429 244 429 q 340 400 318 429 q 363 297 363 371 l 363 296 q 134 228 214 274 q 54 99 54 182 q 94 14 54 46 q 188 -18 135 -18 q 280 6 233 -18 q 388 88 326 31 z "},"a":{"ha":1226,"x_min":54,"x_max":1185,"o":"m 869 318 q 969 419 893 419 q 1033 394 1010 419 q 1056 331 1056 369 q 1054 325 1056 329 q 1054 318 1054 318 l 869 318 m 363 122 q 297 76 329 93 q 247 60 265 60 q 208 73 224 60 q 192 115 192 86 q 233 190 192 164 q 363 240 274 217 l 363 122 m 508 310 q 453 444 506 403 q 289 486 401 486 q 148 456 208 486 q 88 375 88 425 q 103 331 88 347 q 142 315 118 315 q 181 332 165 315 q 197 375 197 349 q 221 415 197 400 q 272 429 244 429 q 340 400 318 429 q 363 297 363 371 l 363 296 q 134 228 214 274 q 54 99 54 182 q 94 14 54 46 q 188 -18 135 -18 q 266 -1 232 -18 q 363 65 300 17 q 469 -15 378 -15 q 532 -1 494 -15 q 599 36 569 14 l 579 74 q 576 72 578 72 q 539 57 553 57 q 508 110 508 57 l 508 250 q 581 254 546 253 q 681 257 617 256 l 694 257 q 693 232 693 249 q 713 133 693 179 q 771 51 733 86 q 860 -4 808 15 q 974 -24 913 -24 q 1090 2 1032 -24 q 1185 68 1147 28 l 1161 108 q 997 50 1094 50 q 899 97 940 50 q 858 232 858 144 l 860 244 q 860 257 860 250 l 1163 257 q 1168 299 1168 278 q 1111 428 1168 371 q 963 486 1054 486 q 806 440 875 486 q 708 318 736 394 q 508 310 625 318 z "},"b":{"ha":1188,"x_min":39,"x_max":1118,"o":"m 1118 232 q 1049 413 1118 340 q 865 486 981 486 q 751 446 801 486 l 751 857 q 400 857 433 857 q 153 575 153 857 l 153 463 l 39 463 l 39 401 l 153 401 l 153 203 q 149 117 153 147 q 133 69 144 86 q 101 47 122 53 q 43 40 81 40 l 43 0 l 419 0 l 419 40 q 362 47 382 40 q 330 69 342 53 q 314 117 318 86 q 310 203 310 147 l 310 401 l 449 401 l 449 463 l 310 463 l 310 635 q 327 762 310 724 q 396 800 344 800 q 485 800 428 800 q 573 756 551 800 q 594 603 594 713 q 594 388 594 460 l 594 -11 l 636 -11 l 708 67 q 775 1 735 25 q 865 -24 815 -24 q 1049 50 981 -24 q 1118 232 1118 124 m 949 232 q 922 95 949 149 q 844 42 896 42 q 779 77 807 42 q 751 164 751 113 l 751 299 q 779 386 751 351 q 844 421 807 421 q 922 368 896 421 q 949 232 949 315 z "},"c":{"ha":994,"x_min":58,"x_max":1001,"o":"m 324 431 q 328 411 325 424 q 331 404 331 406 q 372 333 347 360 q 429 307 396 307 q 479 328 461 307 q 497 372 497 350 q 472 433 497 406 q 397 474 447 461 q 375 578 375 528 q 434 716 375 663 q 567 769 493 769 q 709 721 658 769 q 760 611 760 672 q 726 519 760 564 q 626 456 692 474 q 619 453 625 456 q 596 447 613 451 l 596 401 l 669 401 l 669 147 q 713 22 669 67 q 831 -24 756 -24 q 917 1 867 -24 q 1001 57 967 25 l 982 96 q 888 56 925 56 q 825 157 825 56 l 825 401 l 946 401 l 946 463 l 825 463 l 825 569 q 755 742 825 679 q 569 806 685 806 q 472 788 519 806 q 387 735 424 769 q 328 651 350 701 q 307 540 307 601 q 311 486 307 514 q 132 410 206 483 q 58 219 58 338 q 78 124 58 168 q 135 46 99 79 q 220 -6 171 13 q 326 -24 269 -24 q 440 1 388 -24 q 533 68 493 25 l 510 108 q 436 61 474 78 q 369 44 399 44 q 265 90 303 44 q 228 219 228 136 q 250 374 228 319 q 324 431 272 429 z "},"d":{"ha":965,"x_min":39,"x_max":1001,"o":"m 761 172 l 679 353 q 668 392 668 378 q 726 422 668 422 l 726 463 l 310 463 l 310 635 q 326 763 310 726 q 385 800 342 800 q 421 785 410 800 q 443 742 432 771 q 469 694 456 710 q 510 678 482 678 q 549 694 535 678 q 563 735 563 711 q 514 818 563 779 q 388 857 465 857 q 209 788 265 857 q 153 575 153 718 l 153 463 l 39 463 l 39 401 l 153 401 l 153 203 q 149 117 153 147 q 133 69 144 86 q 101 47 122 53 q 43 40 81 40 l 43 0 l 419 0 l 419 40 q 362 47 382 40 q 330 69 342 53 q 314 117 318 86 q 310 203 310 147 l 310 401 l 431 401 q 485 385 463 401 q 524 332 507 369 l 681 -19 q 571 -215 632 -149 q 424 -282 510 -282 q 381 -271 393 -282 q 360 -240 368 -260 q 346 -218 353 -225 q 325 -211 339 -211 q 280 -228 294 -211 q 265 -275 265 -246 q 303 -336 265 -307 q 397 -365 342 -365 q 526 -334 469 -365 q 624 -251 583 -303 q 693 -144 665 -200 q 754 -10 721 -89 l 903 353 q 940 406 917 390 q 1001 422 964 422 l 1001 463 l 796 463 l 796 422 q 846 392 846 422 q 836 353 846 378 l 761 172 z "},"e":{"ha":1192,"x_min":58,"x_max":1151,"o":"m 419 318 l 233 318 q 333 419 257 419 q 397 392 375 419 q 419 318 419 365 m 1021 318 l 836 318 q 935 419 860 419 q 1021 318 1021 419 m 661 257 q 660 232 660 249 q 680 133 660 179 q 738 51 700 86 q 827 -4 775 15 q 940 -24 879 -24 q 1056 3 997 -24 q 1151 68 1114 29 l 1128 108 q 1053 65 1096 81 q 963 50 1010 50 q 865 97 906 50 q 825 232 825 144 l 826 244 q 826 257 826 250 l 1129 257 q 1135 299 1135 278 q 1078 428 1135 371 q 928 486 1021 486 q 772 440 842 486 q 675 318 703 394 l 532 318 q 469 436 524 386 q 326 486 414 486 q 224 467 272 486 q 138 414 175 449 q 79 333 100 379 q 58 232 58 286 q 78 133 58 179 q 136 51 99 86 q 225 -4 174 15 q 338 -24 276 -24 q 454 2 396 -24 q 550 68 513 28 l 525 108 q 451 65 494 81 q 361 50 408 50 q 265 97 306 50 q 224 229 224 143 q 225 243 224 233 q 225 257 225 251 l 661 257 z "},"f":{"ha":935,"x_min":39,"x_max":1031,"o":"m 1031 735 q 982 818 1031 779 q 856 857 933 857 q 677 788 733 857 q 621 575 621 718 l 621 463 l 310 463 l 310 599 q 324 715 310 682 q 376 747 338 747 q 408 735 399 747 q 429 694 418 722 q 451 652 439 667 q 489 638 464 638 q 524 653 511 638 q 538 690 538 668 q 493 764 538 729 q 379 799 449 799 q 210 733 267 799 q 153 529 153 668 l 153 463 l 39 463 l 39 401 l 153 401 l 153 203 q 149 117 153 147 q 133 69 144 86 q 101 47 122 53 q 43 40 81 40 l 43 0 l 419 0 l 419 40 q 362 47 382 40 q 330 69 342 53 q 314 117 318 86 q 310 203 310 147 l 310 401 l 621 401 l 621 203 q 616 117 621 149 q 600 69 611 86 q 568 47 589 53 q 511 40 547 40 l 511 0 l 886 0 l 886 40 q 829 47 850 40 q 797 69 808 53 q 781 117 786 86 q 776 203 776 149 l 776 401 l 917 401 l 917 463 l 776 463 l 776 635 q 793 763 776 726 q 851 800 810 800 q 888 785 876 800 q 911 740 900 771 q 935 694 922 710 q 976 678 949 678 q 1016 694 1001 678 q 1031 735 1031 711 z "},"g":{"ha":971,"x_min":22,"x_max":942,"o":"m 347 286 q 328 191 347 228 q 269 154 308 154 q 212 191 232 154 q 192 286 192 228 q 212 381 192 344 q 269 418 232 418 q 328 381 308 418 q 347 286 347 344 m 386 442 q 269 475 331 475 q 190 460 228 475 q 124 419 153 446 q 78 358 94 393 q 63 286 63 324 q 92 190 63 233 q 167 126 121 146 q 78 75 111 108 q 46 4 46 42 q 219 -135 46 -117 q 385 -169 343 -147 q 426 -228 426 -190 q 381 -297 426 -271 q 261 -324 335 -324 q 149 -299 201 -324 q 96 -231 96 -275 q 140 -144 96 -192 l 114 -129 q 22 -243 22 -175 q 91 -341 22 -300 q 275 -382 160 -382 q 464 -328 388 -382 q 540 -185 540 -274 q 528 -122 540 -153 q 487 -62 515 -90 q 413 -15 458 -35 q 304 11 368 4 q 271 15 301 11 q 181 28 204 22 q 157 51 157 35 q 185 83 157 75 q 275 96 213 92 q 285 97 278 97 q 423 159 369 104 q 476 286 476 214 q 442 390 476 344 q 424 518 424 458 q 476 688 424 626 q 593 749 528 749 q 683 693 657 749 q 714 646 697 663 q 754 629 731 629 q 801 649 782 629 q 821 697 821 669 q 790 761 821 735 q 729 796 758 788 q 640 810 685 810 q 537 789 585 810 q 453 729 489 768 q 397 638 417 690 q 376 525 376 586 q 386 442 376 483 m 942 -11 l 942 29 q 885 35 906 29 q 853 58 864 42 q 837 106 842 75 q 832 192 832 138 l 832 475 l 567 440 l 567 400 q 624 394 603 400 q 656 371 644 388 q 672 323 667 354 q 676 238 676 292 l 676 192 q 672 106 676 138 q 656 58 667 75 q 624 35 644 42 q 567 29 603 29 l 567 -11 l 942 -11 z "},"h":{"ha":1226,"x_min":39,"x_max":1226,"o":"m 751 411 l 751 857 q 400 857 433 857 q 153 575 153 857 l 153 463 l 39 463 l 39 401 l 153 401 l 153 203 q 149 117 153 147 q 133 69 144 86 q 101 47 122 53 q 43 40 81 40 l 43 0 l 419 0 l 419 40 q 362 47 382 40 q 330 69 342 53 q 314 117 318 86 q 310 203 310 147 l 310 401 l 449 401 l 449 463 l 310 463 l 310 635 q 327 762 310 724 q 396 800 344 800 q 485 800 428 800 q 573 756 551 800 q 594 603 594 713 l 594 203 q 590 117 594 147 q 575 69 586 86 q 543 47 564 53 q 485 40 522 40 l 485 0 l 861 0 l 861 40 q 803 47 824 40 q 772 69 783 53 q 756 117 760 86 q 751 203 751 147 l 751 271 q 789 372 751 336 q 874 408 826 408 q 942 372 924 408 q 960 261 960 335 l 960 203 q 947 73 960 106 q 906 40 935 40 l 906 0 l 1226 0 l 1226 40 q 1168 47 1189 40 q 1136 69 1147 53 q 1120 117 1125 86 q 1115 203 1115 149 l 1115 279 q 1061 428 1115 369 q 915 486 1007 486 q 822 467 863 486 q 751 411 782 447 z "},"i":{"ha":879,"x_min":54,"x_max":899,"o":"m 431 0 l 431 40 q 373 47 393 40 q 341 69 353 53 q 325 117 329 86 q 321 203 321 147 l 321 486 l 54 451 l 54 411 q 113 405 92 411 q 144 382 133 399 q 160 335 156 365 q 164 249 164 304 l 164 203 q 160 117 164 147 q 144 69 156 86 q 113 47 133 53 q 54 40 92 40 l 54 0 l 431 0 m 304 663 q 371 745 338 721 q 463 769 404 769 q 606 721 556 769 q 657 611 657 672 q 623 519 657 564 q 524 456 589 474 q 493 447 518 453 l 493 401 l 567 401 l 567 147 q 610 22 567 67 q 728 -24 653 -24 q 813 1 763 -24 q 899 57 864 25 l 879 96 q 785 56 822 56 q 722 157 722 56 l 722 401 l 843 401 l 843 463 l 722 463 l 722 569 q 652 742 722 679 q 467 806 582 806 q 351 803 400 806 q 258 791 301 800 q 190 762 215 782 q 164 708 164 742 q 186 651 164 675 q 240 628 208 628 q 277 638 258 628 q 304 663 296 649 z "},"j":{"ha":864,"x_min":39,"x_max":754,"o":"m 754 -108 l 754 463 l 310 463 l 310 628 q 347 757 310 714 q 442 800 383 800 q 513 776 494 800 q 544 704 532 751 q 565 649 553 667 q 608 631 578 631 q 653 650 635 631 q 671 693 671 669 q 604 813 671 768 q 436 857 538 857 q 232 782 311 857 q 153 560 153 707 l 153 463 l 39 463 l 39 401 l 153 401 l 153 203 q 149 117 153 147 q 133 69 144 86 q 101 47 122 53 q 43 40 81 40 l 43 0 l 419 0 l 419 40 q 362 47 382 40 q 330 69 342 53 q 314 117 318 86 q 310 203 310 147 l 310 401 l 488 401 q 546 395 525 401 q 578 373 567 389 q 593 326 589 357 q 597 240 597 296 l 597 -97 q 574 -267 597 -221 q 504 -314 550 -314 q 455 -297 469 -314 q 428 -247 440 -281 q 407 -206 418 -219 q 372 -192 396 -192 q 325 -240 325 -192 q 381 -328 326 -286 q 526 -371 436 -371 q 697 -308 640 -371 q 754 -108 754 -244 z "},"k":{"ha":1143,"x_min":18,"x_max":1179,"o":"m 939 172 l 858 353 q 781 461 825 429 q 658 493 738 493 q 568 471 611 493 q 469 408 525 449 l 463 403 l 283 275 l 283 857 l 18 822 l 18 782 q 75 776 54 782 q 107 753 96 769 q 123 705 118 736 q 128 619 128 674 l 128 203 q 123 117 128 149 q 107 69 118 86 q 75 47 96 53 q 18 40 54 40 l 18 0 l 371 0 l 371 40 q 301 71 318 40 q 283 192 283 101 l 283 221 l 469 0 l 665 0 l 665 40 q 613 52 638 40 q 560 96 588 64 l 397 292 l 503 372 q 562 410 538 399 q 615 421 586 421 q 660 404 643 421 q 692 353 676 388 l 858 -19 q 749 -215 810 -149 q 601 -282 688 -282 q 560 -271 572 -282 q 538 -240 547 -260 q 525 -218 532 -225 q 504 -211 518 -211 q 458 -228 474 -211 q 443 -275 443 -246 q 481 -336 443 -307 q 575 -365 519 -365 q 705 -334 649 -365 q 802 -251 761 -303 q 870 -146 843 -200 q 932 -10 897 -92 l 1081 353 q 1119 406 1096 390 q 1179 422 1143 422 l 1179 463 l 974 463 l 974 422 q 1024 392 1024 422 q 1014 353 1024 378 l 939 172 z "},"l":{"ha":879,"x_min":39,"x_max":861,"o":"m 396 800 q 485 800 428 800 q 573 756 551 800 q 594 603 594 713 l 594 203 q 590 117 594 147 q 575 69 586 86 q 543 47 564 53 q 485 40 522 40 l 485 0 l 861 0 l 861 40 q 803 47 824 40 q 772 69 783 53 q 756 117 760 86 q 751 203 751 147 l 751 857 q 400 857 433 857 q 153 575 153 857 l 153 463 l 39 463 l 39 401 l 153 401 l 153 203 q 149 117 153 147 q 133 69 144 86 q 101 47 122 53 q 43 40 81 40 l 43 0 l 419 0 l 419 40 q 362 47 382 40 q 330 69 342 53 q 314 117 318 86 q 310 203 310 147 l 310 401 l 449 401 l 449 463 l 310 463 l 310 635 q 327 762 310 724 q 396 800 344 800 z "},"m":{"ha":1139,"x_min":22,"x_max":1122,"o":"m 347 297 q 328 202 347 239 q 269 165 308 165 q 212 202 232 165 q 192 297 192 239 q 212 392 192 356 q 269 429 232 429 q 328 393 308 429 q 347 297 347 357 m 592 540 q 599 539 594 540 q 604 539 603 539 q 640 556 626 539 q 653 596 653 572 q 627 655 653 629 q 551 681 601 681 q 438 636 483 681 q 392 510 392 592 q 400 442 392 479 q 340 474 371 463 q 269 486 308 486 q 190 472 228 486 q 124 431 153 457 q 78 369 94 404 q 63 297 63 335 q 92 201 63 244 q 167 138 121 158 q 79 88 113 121 q 46 17 46 54 q 219 -122 46 -104 q 385 -158 343 -136 q 426 -217 426 -179 q 381 -285 426 -260 q 261 -311 335 -311 q 149 -287 201 -311 q 96 -218 96 -262 q 140 -133 96 -181 l 114 -118 q 22 -232 22 -164 q 91 -330 22 -289 q 275 -371 160 -371 q 464 -317 388 -371 q 540 -172 540 -262 q 528 -109 540 -140 q 487 -50 515 -78 q 413 -3 458 -22 q 304 24 367 17 l 275 26 q 181 40 206 33 q 157 63 157 46 q 184 94 157 86 q 269 107 211 103 q 285 108 279 108 q 423 170 369 115 q 476 297 476 225 q 469 352 476 329 q 443 399 463 375 q 433 492 433 450 q 453 583 433 550 q 513 615 472 615 q 540 607 532 615 q 553 581 547 599 q 567 554 560 564 q 592 540 575 544 m 917 297 q 897 202 917 239 q 839 165 878 165 q 781 202 801 165 q 761 297 761 239 q 781 392 761 356 q 839 429 801 429 q 897 393 878 429 q 917 297 917 357 m 929 476 q 888 481 917 476 q 839 486 854 486 q 760 472 797 486 q 693 431 722 457 q 648 369 664 404 q 632 297 632 335 q 661 201 632 244 q 736 138 690 158 q 649 88 682 121 q 615 17 615 54 q 789 -122 615 -104 q 954 -158 913 -136 q 996 -217 996 -179 q 950 -285 996 -260 q 831 -311 904 -311 q 718 -287 771 -311 q 665 -218 665 -262 q 710 -133 665 -181 l 683 -118 q 592 -232 592 -164 q 660 -329 592 -287 q 844 -371 729 -371 q 1033 -317 957 -371 q 1110 -172 1110 -262 q 1097 -109 1110 -140 q 1056 -50 1085 -78 q 982 -3 1028 -22 q 874 24 936 17 l 844 26 q 751 40 775 33 q 726 63 726 46 q 753 94 726 86 q 839 107 781 103 q 854 108 849 108 q 992 170 939 115 q 1046 297 1046 225 q 1028 374 1046 338 q 978 436 1010 410 q 1085 488 1047 444 q 1122 594 1122 532 q 1097 669 1122 643 q 1038 694 1071 694 q 997 682 1014 694 q 981 649 981 669 q 981 642 981 646 q 982 635 982 638 q 995 610 986 618 q 1022 596 1004 603 q 1047 583 1039 590 q 1056 556 1056 575 q 1019 494 1056 511 q 929 476 983 476 z "},"n":{"ha":1067,"x_min":22,"x_max":1103,"o":"m 725 -324 l 1004 353 q 1043 406 1019 390 q 1103 422 1067 422 l 1103 463 l 897 463 l 897 422 q 947 392 947 422 q 938 353 947 378 l 863 172 l 782 353 q 769 393 769 379 q 828 422 769 422 l 828 463 l 524 463 l 524 422 q 578 406 557 422 q 615 353 600 390 l 782 -19 l 722 -167 q 690 -226 707 -204 q 649 -269 672 -249 q 624 -296 632 -285 q 617 -324 617 -307 q 635 -363 617 -351 q 672 -375 653 -375 q 701 -360 688 -375 q 725 -324 715 -346 m 347 297 q 328 202 347 239 q 269 165 308 165 q 212 202 232 165 q 192 297 192 239 q 212 392 192 356 q 269 429 232 429 q 328 393 308 429 q 347 297 347 357 m 157 63 q 184 94 157 86 q 269 107 211 103 q 285 108 279 108 q 423 170 369 115 q 476 297 476 225 q 469 352 476 329 q 443 399 463 375 q 433 492 433 450 q 453 583 433 550 q 513 615 472 615 q 540 607 532 615 q 553 581 547 599 q 567 554 560 564 q 592 540 575 544 q 599 539 594 540 q 604 539 603 539 q 640 556 626 539 q 653 596 653 572 q 627 655 653 629 q 551 681 601 681 q 438 636 483 681 q 392 510 392 592 q 400 442 392 479 q 340 474 371 463 q 269 486 308 486 q 190 472 228 486 q 124 431 153 457 q 78 369 94 404 q 63 297 63 335 q 92 201 63 244 q 167 138 121 158 q 79 88 113 121 q 46 17 46 54 q 219 -122 46 -104 q 385 -158 343 -136 q 426 -217 426 -179 q 381 -285 426 -260 q 261 -311 335 -311 q 149 -287 201 -311 q 96 -218 96 -262 q 140 -133 96 -181 l 114 -118 q 22 -232 22 -164 q 91 -330 22 -289 q 275 -371 160 -371 q 464 -317 388 -371 q 540 -172 540 -262 q 528 -109 540 -140 q 487 -50 515 -78 q 413 -3 458 -22 q 304 24 367 17 l 275 26 q 181 40 206 33 q 157 63 157 46 z "},"o":{"ha":1289,"x_min":58,"x_max":1249,"o":"m 933 318 q 1032 419 957 419 q 1118 318 1118 419 l 933 318 m 449 232 q 420 95 449 149 q 338 42 392 42 q 256 95 283 42 q 228 232 228 149 q 256 368 228 315 q 338 421 283 421 q 420 368 392 421 q 449 232 449 315 m 601 318 q 499 440 571 393 q 338 486 426 486 q 230 467 281 486 q 140 412 179 447 q 80 330 101 376 q 58 232 58 283 q 80 134 58 181 q 140 52 101 88 q 231 -3 179 17 q 338 -24 282 -24 q 446 -4 394 -24 q 536 51 497 15 q 597 134 575 88 q 618 232 618 181 q 617 257 618 249 l 758 257 q 757 232 757 249 q 777 133 757 179 q 835 51 797 86 q 924 -4 872 15 q 1038 -24 976 -24 q 1153 3 1094 -24 q 1249 68 1211 29 l 1225 108 q 1150 65 1193 81 q 1060 50 1107 50 q 963 97 1003 50 q 922 232 922 144 l 924 244 q 924 257 924 250 l 1226 257 q 1232 299 1232 278 q 1175 428 1232 371 q 1025 486 1118 486 q 869 440 939 486 q 772 318 800 394 l 601 318 z "},"p":{"ha":1194,"x_min":58,"x_max":1125,"o":"m 956 232 q 929 95 956 149 q 851 42 903 42 q 786 77 814 42 q 758 164 758 113 l 758 299 q 786 386 758 351 q 851 421 814 421 q 929 368 903 421 q 956 232 956 315 m 546 460 l 492 451 l 492 411 q 550 405 529 411 q 582 382 571 399 q 597 335 593 365 q 601 249 601 304 l 601 -144 q 597 -231 601 -200 q 582 -278 593 -261 q 550 -301 571 -294 q 492 -307 529 -307 l 492 -347 l 868 -347 l 868 -307 q 810 -301 831 -307 q 778 -278 790 -294 q 763 -231 767 -261 q 758 -144 758 -200 l 758 18 q 872 -24 807 -24 q 1056 50 988 -24 q 1125 232 1125 124 q 1056 413 1125 340 q 872 486 988 486 q 747 436 800 486 l 747 569 q 683 743 747 681 q 504 806 618 806 q 331 734 401 806 q 260 540 260 663 q 264 485 260 513 q 233 486 254 486 q 177 478 206 486 q 124 455 149 471 q 84 412 99 439 q 69 347 69 385 q 96 268 69 307 q 174 206 122 229 l 251 171 q 319 131 299 149 q 340 89 340 113 q 321 50 340 65 q 268 35 301 35 q 204 48 235 35 q 150 83 174 61 q 113 130 126 104 q 99 179 99 156 l 58 179 l 58 -24 l 99 -24 q 117 21 99 21 q 154 7 126 21 q 211 -15 185 -7 q 269 -24 238 -24 q 402 16 346 -24 q 458 133 458 56 q 431 213 458 175 q 351 275 403 251 l 283 307 q 207 347 226 332 q 188 383 188 361 q 207 417 188 404 q 256 431 226 431 q 276 428 269 431 q 282 413 279 422 q 283 407 283 408 q 315 351 296 372 q 363 331 335 331 q 402 347 388 331 q 417 382 417 364 q 398 431 417 413 q 344 467 379 449 q 321 578 321 524 q 376 716 321 663 q 501 769 431 769 q 637 722 592 769 q 682 611 682 675 q 647 516 682 563 q 546 460 613 469 z "},"q":{"ha":1636,"x_min":22,"x_max":1672,"o":"m 557 346 q 564 344 560 346 q 569 344 568 344 q 605 361 592 344 q 618 401 618 378 q 592 460 618 435 q 517 486 567 486 q 462 471 493 486 q 414 433 431 456 q 269 486 353 486 q 190 472 228 486 q 124 431 153 457 q 78 369 94 404 q 63 297 63 335 q 92 201 63 244 q 167 138 121 158 q 79 88 113 121 q 46 17 46 54 q 219 -122 46 -104 q 385 -158 343 -136 q 426 -217 426 -179 q 381 -285 426 -260 q 261 -311 335 -311 q 149 -287 201 -311 q 96 -218 96 -262 q 140 -133 96 -181 l 114 -118 q 22 -232 22 -164 q 91 -330 22 -289 q 275 -371 160 -371 q 464 -317 388 -371 q 540 -172 540 -262 q 528 -109 540 -140 q 487 -50 515 -78 q 413 -3 458 -22 q 304 24 367 17 l 275 26 q 181 40 206 33 q 157 63 157 46 q 184 94 157 86 q 269 107 211 103 q 285 108 279 108 q 423 170 369 115 q 476 297 476 225 q 469 352 476 329 q 443 399 463 375 q 486 421 465 421 q 508 413 501 421 q 518 389 514 406 q 531 360 524 371 q 557 346 539 350 m 347 297 q 328 202 347 239 q 269 165 308 165 q 212 202 232 165 q 192 297 192 239 q 212 392 192 356 q 269 429 232 429 q 328 393 308 429 q 347 297 347 357 m 1294 -324 l 1574 353 q 1613 406 1589 390 q 1672 422 1636 422 l 1672 463 l 1467 463 l 1467 422 q 1517 392 1517 422 q 1507 353 1517 378 l 1432 172 l 1351 353 q 1339 393 1339 379 q 1397 422 1339 422 l 1397 463 l 1093 463 l 1093 422 q 1148 406 1126 422 q 1185 353 1169 390 l 1351 -19 l 1292 -167 q 1259 -226 1276 -204 q 1218 -269 1242 -249 q 1194 -296 1201 -285 q 1186 -324 1186 -307 q 1204 -363 1186 -351 q 1242 -375 1222 -375 q 1271 -360 1257 -375 q 1294 -324 1285 -346 m 917 297 q 897 202 917 239 q 839 165 878 165 q 781 202 801 165 q 761 297 761 239 q 781 392 761 356 q 839 429 801 429 q 897 393 878 429 q 917 297 917 357 m 726 63 q 753 94 726 86 q 839 107 781 103 q 854 108 849 108 q 992 170 939 115 q 1046 297 1046 225 q 1039 352 1046 329 q 1013 399 1032 375 q 1003 492 1003 450 q 1022 583 1003 550 q 1082 615 1042 615 q 1109 607 1101 615 q 1122 581 1117 599 q 1137 554 1129 564 q 1161 540 1144 544 q 1168 539 1164 540 q 1174 539 1172 539 q 1209 556 1196 539 q 1222 596 1222 572 q 1197 655 1222 629 q 1121 681 1171 681 q 1007 636 1053 681 q 961 510 961 592 q 969 442 961 479 q 909 474 940 463 q 839 486 878 486 q 760 472 797 486 q 693 431 722 457 q 648 369 664 404 q 632 297 632 335 q 661 201 632 244 q 736 138 690 158 q 649 88 682 121 q 615 17 615 54 q 789 -122 615 -104 q 954 -158 913 -136 q 996 -217 996 -179 q 950 -285 996 -260 q 831 -311 904 -311 q 718 -287 771 -311 q 665 -218 665 -262 q 710 -133 665 -181 l 683 -118 q 592 -232 592 -164 q 660 -329 592 -287 q 844 -371 729 -371 q 1033 -317 957 -371 q 1110 -172 1110 -262 q 1097 -109 1110 -140 q 1056 -50 1085 -78 q 982 -3 1028 -22 q 874 24 936 17 l 844 26 q 751 40 775 33 q 726 63 726 46 z "},"r":{"ha":1067,"x_min":39,"x_max":1060,"o":"m 768 463 l 310 463 l 310 635 q 326 763 310 726 q 385 800 342 800 q 421 785 410 800 q 443 742 432 771 q 469 694 456 710 q 510 678 482 678 q 549 694 535 678 q 563 735 563 711 q 514 818 563 779 q 388 857 465 857 q 209 788 265 857 q 153 575 153 718 l 153 463 l 39 463 l 39 401 l 153 401 l 153 203 q 149 117 153 147 q 133 69 144 86 q 101 47 122 53 q 43 40 81 40 l 43 0 l 419 0 l 419 40 q 362 47 382 40 q 330 69 342 53 q 314 117 318 86 q 310 203 310 147 l 310 401 l 522 401 q 581 395 560 401 q 613 373 601 389 q 628 326 624 357 q 632 240 632 296 l 632 203 q 628 117 632 147 q 613 69 624 86 q 581 47 601 53 q 522 40 560 40 l 522 0 l 899 0 l 899 40 q 841 47 861 40 q 809 69 821 53 q 793 117 797 86 q 789 203 789 147 l 789 232 q 814 345 789 310 q 874 381 839 381 q 911 369 900 381 q 932 333 922 357 q 951 300 942 311 q 985 289 961 289 q 1040 315 1021 289 q 1060 372 1060 342 q 1030 452 1060 418 q 935 486 1000 486 q 851 457 893 486 q 789 386 810 428 q 781 424 786 403 q 768 463 775 446 z "},"s":{"ha":918,"x_min":58,"x_max":925,"o":"m 264 485 q 233 486 254 486 q 177 478 206 486 q 124 455 149 471 q 84 412 99 439 q 69 347 69 385 q 96 268 69 307 q 174 206 122 229 l 251 171 q 319 131 299 149 q 340 89 340 113 q 321 50 340 65 q 268 35 301 35 q 204 48 235 35 q 150 83 174 61 q 113 130 126 104 q 99 179 99 156 l 58 179 l 58 -24 l 99 -24 q 117 21 99 21 q 154 7 126 21 q 211 -15 185 -7 q 269 -24 238 -24 q 402 16 346 -24 q 458 133 458 56 q 431 213 458 175 q 351 275 403 251 l 283 307 q 207 347 226 332 q 188 383 188 361 q 207 417 188 404 q 256 431 226 431 q 276 428 269 431 q 282 413 279 422 q 283 407 283 408 q 315 351 296 372 q 363 331 335 331 q 402 347 388 331 q 417 382 417 364 q 398 431 417 413 q 344 467 379 449 q 321 578 321 524 q 376 716 321 663 q 501 769 431 769 q 638 722 592 769 q 683 611 683 674 q 649 519 683 564 q 550 456 615 474 q 542 453 549 456 q 519 447 536 451 l 519 401 l 593 401 l 593 147 q 636 22 593 67 q 754 -24 679 -24 q 840 1 790 -24 q 925 57 890 25 l 906 96 q 811 56 849 56 q 749 157 749 56 l 749 401 l 869 401 l 869 463 l 749 463 l 749 569 q 684 743 749 681 q 504 806 619 806 q 331 734 401 806 q 260 540 260 663 q 264 485 260 513 z "},"t":{"ha":888,"x_min":39,"x_max":907,"o":"m 485 463 l 310 463 l 310 635 q 326 763 310 726 q 385 800 342 800 q 421 785 410 800 q 443 742 432 771 q 469 694 456 710 q 510 678 482 678 q 549 694 535 678 q 563 735 563 711 q 514 818 563 779 q 388 857 465 857 q 209 788 265 857 q 153 575 153 718 l 153 463 l 39 463 l 39 401 l 153 401 l 153 203 q 149 117 153 147 q 133 69 144 86 q 101 47 122 53 q 43 40 81 40 l 43 0 l 419 0 l 419 40 q 362 47 382 40 q 330 69 342 53 q 314 117 318 86 q 310 203 310 147 l 310 401 l 574 401 l 574 147 q 617 22 574 67 q 736 -24 661 -24 q 822 1 771 -24 q 907 57 872 25 l 886 96 q 793 56 832 56 q 731 157 731 56 l 731 401 l 851 401 l 851 463 l 731 463 l 731 653 l 683 653 q 623 519 675 576 q 485 463 571 463 z "},"u":{"ha":1168,"x_min":54,"x_max":1099,"o":"m 928 232 q 901 95 928 149 q 824 42 875 42 q 760 77 788 42 q 732 164 732 113 l 732 299 q 760 386 732 351 q 824 421 788 421 q 901 368 875 421 q 928 232 928 315 m 656 611 q 648 567 656 590 q 625 522 640 543 q 519 460 588 469 l 465 451 l 465 411 q 524 405 503 411 q 556 382 544 399 q 571 335 567 365 q 575 249 575 304 l 575 -144 q 571 -231 575 -200 q 556 -278 567 -261 q 524 -301 544 -294 q 465 -307 503 -307 l 465 -347 l 842 -347 l 842 -307 q 784 -301 804 -307 q 752 -278 764 -294 q 736 -231 740 -261 q 732 -144 732 -200 l 732 18 q 846 -24 781 -24 q 1030 50 961 -24 q 1099 232 1099 124 q 1030 413 1099 340 q 846 486 961 486 q 721 436 774 486 l 721 569 q 651 742 721 679 q 465 806 581 806 q 349 803 399 806 q 257 791 300 800 q 188 762 214 782 q 163 708 163 742 q 185 651 163 675 q 240 628 208 628 q 277 639 257 628 q 304 664 297 650 q 371 745 335 721 q 463 769 407 769 q 605 721 554 769 q 656 611 656 672 m 431 0 l 431 40 q 373 47 393 40 q 341 69 353 53 q 325 117 329 86 q 321 203 321 147 l 321 486 l 54 451 l 54 411 q 113 405 92 411 q 144 382 133 399 q 160 335 156 365 q 164 249 164 304 l 164 203 q 160 117 164 147 q 144 69 156 86 q 113 47 133 53 q 54 40 92 40 l 54 0 l 431 0 z "},"v":{"ha":1206,"x_min":6,"x_max":1242,"o":"m 469 232 q 443 95 469 149 q 365 42 417 42 q 300 77 328 42 q 272 164 272 113 l 272 299 q 300 386 272 351 q 365 421 328 421 q 443 368 417 421 q 469 232 469 315 m 639 232 q 570 413 639 340 q 386 486 501 486 q 261 436 314 486 l 260 442 q 249 486 253 479 l 6 451 l 6 411 q 64 405 43 411 q 96 382 85 399 q 111 335 107 365 q 115 249 115 304 l 115 -144 q 111 -231 115 -200 q 96 -278 107 -261 q 64 -301 85 -294 q 6 -307 43 -307 l 6 -347 l 382 -347 l 382 -307 q 324 -301 344 -307 q 292 -278 304 -294 q 276 -231 281 -261 q 272 -144 272 -200 l 272 18 q 386 -24 321 -24 q 570 50 501 -24 q 639 232 639 124 m 994 -10 l 1143 353 q 1182 406 1158 390 q 1242 422 1206 422 l 1242 463 l 1036 463 l 1036 422 q 1086 392 1086 422 q 1076 353 1086 378 l 1001 172 l 921 353 q 908 393 908 379 q 967 422 908 422 l 967 463 l 663 463 l 663 422 q 717 406 696 422 q 754 353 739 390 l 921 -19 q 811 -215 872 -149 q 664 -282 750 -282 q 622 -271 635 -282 q 600 -240 610 -260 q 588 -218 594 -225 q 567 -211 581 -211 q 521 -228 536 -211 q 506 -275 506 -246 q 544 -336 506 -307 q 638 -365 582 -365 q 767 -334 711 -365 q 865 -251 824 -303 q 933 -146 906 -200 q 994 -10 960 -92 z "},"w":{"ha":1122,"x_min":33,"x_max":1144,"o":"m 672 463 l 263 463 l 263 638 l 215 638 q 153 517 208 572 q 33 447 99 461 l 33 401 l 107 401 l 107 147 q 150 22 107 67 q 268 -24 193 -24 q 354 1 304 -24 q 439 57 404 25 l 419 96 q 325 56 363 56 q 263 157 263 56 l 263 401 l 388 401 q 443 387 424 401 q 481 332 463 372 l 629 -25 l 657 -25 l 761 243 l 872 -25 l 900 -25 l 1046 353 q 1084 408 1063 393 q 1144 422 1106 422 l 1144 463 l 939 463 l 939 422 q 989 393 989 422 q 979 353 989 379 l 926 215 l 824 463 l 779 463 l 683 215 l 626 353 q 615 394 615 379 q 672 422 615 422 l 672 463 z "},"x":{"ha":840,"x_min":33,"x_max":858,"o":"m 438 463 l 263 463 l 263 653 l 215 653 q 155 520 210 579 q 33 447 100 461 l 33 401 l 107 401 l 107 147 q 150 22 107 67 q 268 -24 193 -24 q 354 1 304 -24 q 439 57 404 25 l 419 96 q 325 56 363 56 q 263 157 263 56 l 263 401 l 526 401 l 526 147 q 569 22 526 67 q 689 -24 613 -24 q 774 1 724 -24 q 858 57 825 25 l 839 96 q 746 56 785 56 q 683 157 683 56 l 683 401 l 803 401 l 803 463 l 683 463 l 683 653 l 636 653 q 576 520 628 578 q 438 463 524 463 z "},"y":{"ha":918,"x_min":33,"x_max":954,"o":"m 476 332 l 633 -19 q 524 -215 585 -149 q 376 -282 463 -282 q 333 -271 346 -282 q 313 -240 321 -260 q 299 -218 306 -225 q 278 -211 292 -211 q 233 -228 247 -211 q 218 -275 218 -246 q 256 -336 218 -307 q 350 -365 294 -365 q 479 -334 422 -365 q 577 -251 536 -303 q 646 -144 618 -200 q 706 -10 674 -87 l 856 353 q 893 406 869 390 q 954 422 917 422 l 954 463 l 747 463 l 747 422 q 799 392 799 422 q 789 353 799 378 l 713 172 l 632 353 q 621 393 621 378 q 678 422 621 422 l 678 463 l 263 463 l 263 653 l 215 653 q 155 520 210 579 q 33 447 100 461 l 33 401 l 107 401 l 107 147 q 150 22 107 67 q 268 -24 193 -24 q 354 1 304 -24 q 439 57 404 25 l 419 96 q 325 56 363 56 q 263 157 263 56 l 263 401 l 383 401 q 438 385 415 401 q 476 332 460 369 z "},"z":{"ha":1338,"x_min":33,"x_max":1374,"o":"m 896 332 l 1053 -19 q 943 -215 1004 -149 q 796 -282 882 -282 q 754 -271 767 -282 q 732 -240 742 -260 q 719 -218 726 -225 q 699 -211 713 -211 q 653 -228 668 -211 q 638 -275 638 -246 q 676 -336 638 -307 q 769 -365 714 -365 q 899 -334 843 -365 q 997 -251 956 -303 q 1065 -146 1038 -200 q 1126 -10 1092 -92 l 1275 353 q 1314 406 1290 390 q 1374 422 1338 422 l 1374 463 l 1168 463 l 1168 422 q 1218 392 1218 422 q 1208 353 1218 378 l 1133 172 l 1053 353 q 1040 393 1040 379 q 1099 422 1040 422 l 1099 463 l 683 463 l 683 653 l 636 653 q 576 520 628 578 q 438 463 524 463 l 263 463 l 263 653 l 215 653 q 155 520 210 579 q 33 447 100 461 l 33 401 l 107 401 l 107 147 q 150 22 107 67 q 268 -24 193 -24 q 354 1 304 -24 q 439 57 404 25 l 419 96 q 325 56 363 56 q 263 157 263 56 l 263 401 l 526 401 l 526 147 q 569 22 526 67 q 689 -24 613 -24 q 774 1 724 -24 q 858 57 825 25 l 839 96 q 746 56 785 56 q 683 157 683 56 l 683 401 l 803 401 q 857 385 835 401 q 896 332 879 369 z "},"{":{"ha":521,"x_min":58,"x_max":481,"o":"m 58 422 l 58 400 l 63 399 q 119 375 99 386 q 157 340 140 364 q 183 273 174 317 q 192 158 192 229 q 209 52 192 97 q 256 -25 226 7 q 318 -78 285 -57 q 404 -129 351 -100 q 449 -154 438 -147 l 481 -114 q 416 -62 439 -85 q 381 -12 393 -39 q 363 54 368 15 q 358 156 358 93 q 344 275 358 228 q 307 349 331 322 q 254 388 283 375 q 179 411 225 400 q 253 435 224 422 q 307 474 283 447 q 344 547 331 500 q 358 667 358 594 q 363 768 358 729 q 380 834 368 807 q 415 884 392 861 q 481 935 439 907 l 449 976 q 406 953 435 968 q 318 901 351 924 q 256 848 285 879 q 209 771 226 817 q 192 664 192 725 q 183 549 192 593 q 158 482 174 506 q 120 447 142 458 q 63 424 99 436 l 58 422 z "},"|":{"ha":375,"x_min":160,"x_max":221,"o":"m 160 983 l 160 0 l 221 0 l 221 983 l 160 983 z "},"}":{"ha":521,"x_min":40,"x_max":463,"o":"m 463 400 l 463 422 l 460 424 q 401 447 422 436 q 365 482 381 458 q 340 549 349 506 q 331 664 331 593 q 313 770 331 725 q 267 847 296 815 q 203 901 238 879 q 117 953 169 924 q 72 976 89 967 l 40 935 q 106 884 82 907 q 142 834 129 861 q 158 768 154 807 q 163 667 163 729 q 176 547 163 594 q 214 474 190 500 q 267 435 238 447 q 342 411 297 422 q 267 388 297 400 q 214 349 238 375 q 176 275 190 322 q 163 156 163 228 q 158 54 163 93 q 141 -12 153 15 q 106 -62 129 -39 q 40 -114 82 -85 l 72 -154 q 117 -129 83 -147 q 204 -78 171 -100 q 267 -25 238 -57 q 313 52 296 7 q 331 158 331 97 q 340 274 331 229 q 365 341 349 318 q 401 375 381 364 q 460 399 422 386 l 463 400 z "},"":{"ha":0,"x_min":0,"x_max":0,"o":""}}}
